<svg width="385" height="28" viewBox="0 0 385 28" fill="none" xmlns="http://www.w3.org/2000/svg">
<path d="M364.814 22.0347C366.369 22.0853 367.658 21.5187 369.099 22.0654C368.481 22.3054 367.4 22.387 367.851 22.9849C367.874 22.9953 367.899 23.0056 367.923 23.0165C367.904 23.0132 367.885 23.0099 367.866 23.0066C368.131 23.361 367.601 23.4313 367.203 23.4921C366.406 23.6136 366.122 23.8165 366.349 24.2821C366.596 24.7984 366.083 24.9398 365.249 24.7171C363.922 24.3634 362.954 25.2846 361.665 24.9811C361.532 26.0236 360.109 26.327 358.535 26.5699C358.195 26.6208 359.237 26.955 358.404 27.0158C357.948 27.0462 357.853 26.7426 357.568 26.6312C356.791 26.3478 355.957 26.2667 355.312 26.7726C355.104 26.965 355.216 27.1782 355.198 27.3807C355.14 27.8661 354.231 28.1797 353.568 27.8869C352.202 27.2895 350.722 27.5223 349.262 27.5527C349.167 27.5324 349.072 27.5114 348.958 27.5013C348.56 27.4507 348.105 27.4408 348.085 27.1374C348.446 26.7528 349.072 26.4589 349.356 26.0439C351.196 25.8819 352.96 25.4865 354.857 25.4764C355.786 25.4764 356.601 25.3755 357.113 24.8595C357.492 24.4849 358.062 24.3426 358.707 24.7576C358.897 24.9094 359.085 25.0515 359.237 25.2134C359.104 25.0617 358.933 24.9198 358.763 24.7883C358.137 23.766 358.422 23.4828 360.337 23.3715C360.792 23.3411 361.02 23.209 361.343 23.0976C361.912 22.9154 362.48 22.6827 363.182 22.9661C363.846 22.8446 364.473 22.8949 365.269 23.1886C363.999 23.2695 364.187 23.8876 363.504 24.2217C365.458 24.5356 365.231 23.371 366.312 23.1381C366.332 23.1034 366.354 23.071 366.373 23.0402C366.333 23.0647 366.292 23.0935 366.255 23.1282C365.401 22.946 365.477 22.4498 364.814 22.0347ZM310.042 26.3069C311.047 27.1776 311.027 27.2085 309.036 27.3401C308.979 26.8845 308.96 26.4487 310.042 26.3069ZM303.404 25.8106C303.385 25.5981 303.669 25.315 304.067 25.4665C304.541 25.6487 305.489 25.5579 305.489 26.0637C305.489 26.1649 305.451 26.2465 305.243 26.2061C305.091 26.1757 304.977 26.1044 304.845 26.0538C304.845 26.0505 304.845 26.0472 304.845 26.0439C304.427 25.8617 303.461 26.5699 303.404 25.8106ZM106.467 20.6268C106.6 20.4863 107.016 20.7486 107.282 20.8295C107.756 20.9814 107.395 21.1337 107.224 21.2754C106.143 22.1966 104.284 22.4497 102.577 22.8445C102.567 22.8547 102.558 22.8649 102.548 22.8751C102.346 23.0183 101.507 23.0378 102.218 23.3606C102.221 23.3624 102.224 23.3638 102.227 23.3655C103.545 23.1146 104.864 22.8869 106.257 23.1984C105.897 23.4819 106.39 23.9587 105.537 24.1308C105.354 24.1308 105.17 24.1308 104.987 24.1308C104.973 24.1298 104.96 24.1288 104.946 24.1278C104.22 24.2613 103.494 24.5046 102.787 24.4946C100.776 24.4744 100.644 25.092 100.871 25.8917C100.644 25.9119 100.415 25.9218 100.207 25.9421C99.5999 25.9928 98.8601 26.1958 98.4619 25.9025C98.0446 25.5887 98.8992 25.426 99.1268 25.1729C99.544 24.7275 99.9802 24.3126 100.796 23.9785C101.584 23.6478 100.644 23.2377 100.514 22.8465C100.513 22.8458 100.512 22.8451 100.51 22.8445C98.4811 22.3283 96.6229 22.6523 95.8264 23.766C95.4091 24.3632 94.5555 24.2312 93.778 24.2919C93.7841 24.2919 93.7903 24.2919 93.7965 24.2919C93.0001 24.6563 95.0479 24.4343 94.215 24.9198C93.1719 25.5374 92.9998 25.5374 91.7481 24.4541C91.4699 23.739 90.7941 23.5599 89.72 23.9172C89.4545 24.0286 89.0933 24.0187 88.8088 24.1199C88.0691 24.373 87.2913 24.5755 86.6085 24.1199C85.9075 23.6543 86.5337 23.3098 87.1215 22.9859C88.2212 22.6518 89.1514 22.1758 90.346 21.9329C90.9334 21.9326 91.2752 21.5997 91.8629 21.5997C92.4488 21.5998 92.9237 21.6835 93.076 21.926C93.1195 21.9118 93.1631 21.8962 93.2094 21.8825C94.1384 21.751 94.973 21.8623 95.7504 22.1356C95.7628 22.1356 95.7751 22.1356 95.7875 22.1356C98.2151 22.0647 100.7 22.0446 102.938 21.4979C104.095 21.2145 105.708 21.4266 106.467 20.6268ZM65.8984 24.0794C66.6948 23.8162 67.9091 23.6847 68.7247 24.2514C68.2318 24.3931 68.3079 24.6363 68.3079 24.8792C68.3079 25.8207 68.1937 25.8614 66.3354 25.5476C66.2786 25.4363 66.2408 25.3148 66.1651 25.2035C65.8427 24.8289 65.2346 24.3021 65.8984 24.0794ZM14.6916 0.095437C16.2658 -0.056427 17.841 0.00404167 19.6237 0.0647879C19.514 0.148664 19.3938 0.212755 19.27 0.263516C20.7036 0.323783 22.0946 0.556804 23.4928 0.844873C24.7822 1.10785 26.2618 1.01632 27.5322 1.34021C27.7532 1.34021 27.9742 1.34021 28.1952 1.34021C29.5228 1.40096 30.9079 1.78619 32.1217 1.10787C32.4251 0.935755 32.918 0.976054 33.3163 1.15829C34.6249 1.74542 36.1423 1.66486 37.6595 1.52312C37.8301 1.42188 38.0583 1.4112 38.2669 1.46182C38.9688 1.61342 40.2943 1.44189 40.3135 1.79601C40.3135 2.31221 38.9683 2.26154 38.2095 2.44361C37.6218 2.58529 36.8821 2.49486 36.2185 2.5049C35.7065 2.5049 35.0602 2.4438 34.7757 2.64629C33.8177 3.29571 32.6417 3.42094 31.5086 3.34728C31.8083 3.4485 32.0531 3.62812 32.1773 3.88217C32.4073 4.33627 31.8752 4.56604 31.1697 4.65237C32.727 4.85777 34.1864 4.52248 35.674 4.34092C35.6274 3.78305 34.1061 4.41173 33.8849 3.84163C35.326 3.59869 36.9379 3.58809 38.417 3.30476C38.8342 3.22377 39.1579 3.51757 39.3097 3.76056C39.4799 4.05389 39.214 4.19547 38.7022 4.28655C38.594 4.30781 38.4897 4.33491 38.3873 4.36465C38.4098 4.37275 38.4335 4.38041 38.4559 4.38838C39.3092 4.85385 40.2958 4.93457 41.3766 4.66126C43.1404 4.20573 45.1891 4.45864 46.9718 4.03344C47.5027 3.91217 48.072 4.03405 48.4701 4.30731C48.7358 4.74233 49.3236 4.9349 50.1389 4.94502C51.4526 4.95406 52.7803 5.15249 54.0709 4.94898C53.7213 4.74776 53.6393 4.49632 53.969 4.19559C54.3862 3.82099 55.0134 3.86148 55.7341 3.94248C56.2837 4.01328 56.8149 4.05355 57.2509 4.2559C57.2571 4.2559 57.2633 4.2559 57.2694 4.2559C56.7005 4.62037 57.3263 4.70216 57.7436 4.81352C58.0234 4.88645 58.3128 4.92288 58.6067 4.94304C58.8848 4.71011 59.3672 4.60814 59.9809 4.60095C60.2844 4.6212 60.5887 4.65146 60.8921 4.73245C61.9474 4.99062 62.9915 5.15799 64.0768 5.00101C64.3954 4.95493 64.7175 4.88089 65.0445 4.77299C65.6135 4.58063 66.4112 4.55002 67.1319 4.52977C67.5712 4.5186 67.9798 4.52217 68.3487 4.60194C68.4862 4.59726 68.6242 4.59646 68.7617 4.59008C69.4634 4.45846 69.7106 4.57018 69.4451 4.95491C69.3994 4.97931 69.3228 5.01264 69.2469 5.04785C69.4172 5.16001 69.6247 5.21864 69.8544 5.24756C70.0424 5.25139 70.2306 5.26052 70.4193 5.2703C70.7838 5.26467 71.1651 5.23567 71.5121 5.24855C71.9389 5.2631 72.3393 5.28046 72.5974 5.36522C73.2573 5.3585 73.9109 5.29038 74.5476 5.07652C74.9269 4.94499 75.4383 4.89431 75.6089 5.24855C75.6462 5.32277 75.6975 5.37607 75.7571 5.41466C76.1401 5.30679 76.6441 5.23918 76.9368 5.09629C79.023 5.00519 81.1098 5.02535 83.158 5.26833C83.3285 5.26841 83.4992 5.29908 83.6507 5.33951C83.7414 5.4002 83.8278 5.45711 83.9118 5.50957C84.0356 5.51346 84.1624 5.51552 84.2952 5.52143C85.3004 5.57206 86.2107 5.44082 87.0641 5.16748C87.0579 5.16418 87.0518 5.16089 87.0456 5.15759C87.1116 5.15759 87.1777 5.15759 87.2438 5.15759C87.36 5.0842 87.4866 5.00778 87.6142 4.92426C87.7089 4.85354 87.8225 4.79289 87.955 4.74234C88.4859 4.60063 89.0553 4.66107 89.6052 4.71169C91.9569 4.9243 94.29 4.85339 96.6228 4.67115C98.652 4.41806 100.738 4.53996 102.787 4.35773C104.645 4.25649 104.872 4.37786 104.398 5.24855C104.341 5.32948 104.267 5.41084 104.172 5.49177C104.076 5.55512 103.975 5.6154 103.876 5.67468C105.971 5.84445 107.972 5.82254 109.71 5.0261C109.994 4.8945 110.412 4.81361 110.81 4.8946C112.63 5.2586 114.242 4.73257 115.929 4.56042C117.257 4.31743 118.736 4.64062 120.026 4.2559C120.064 4.2493 120.102 4.24271 120.141 4.23612C120.918 4.23612 121.695 4.23589 122.472 4.24601C122.731 4.64242 122.604 4.87425 122.302 5.01819C122.795 4.96566 123.355 5.0079 123.876 5.01522C124.199 4.99496 124.521 4.9444 124.825 5.01522C126.114 5.12659 126.891 5.62307 127.706 6.09884C127.759 6.16759 127.8 6.24219 127.849 6.3124C128.005 6.37394 128.091 6.45072 128.136 6.5398C128.142 6.54198 128.148 6.54412 128.154 6.54622C128.254 6.58205 128.383 6.60503 128.56 6.60505C129.034 6.57468 129.357 6.38282 129.812 6.33217C130.23 6.32343 130.592 6.24252 130.942 6.1463C130.091 6.17671 129.721 5.88883 129.831 5.2792C130.381 4.88435 131.121 4.61088 131.937 4.39827C132.392 4.28691 132.885 4.39791 133.341 4.28655C134.687 4.2663 136.033 4.24573 137.323 4.00279C138.014 3.8731 138.614 4.01892 139.249 4.10067C138.153 4.37749 136.768 4.39419 136.241 5.17737C136.013 5.50134 135.312 5.3704 134.743 5.36028C133.919 5.34266 133.024 5.29431 132.766 5.78047C132.799 5.77794 132.834 5.77842 132.866 5.77454C133.814 5.69364 134.763 5.74426 135.711 5.64305C136.223 5.58241 136.811 5.59275 136.982 5.89615C137.143 6.18878 136.674 6.27805 136.285 6.37864C137.067 6.51172 137.893 6.4374 138.708 6.41324C139.049 6.41326 139.391 6.4229 139.732 6.43302C139.846 6.70623 140.413 6.71677 140.83 7.02031C139.276 6.9697 137.892 6.92877 136.508 6.86805C136.012 6.84601 135.659 6.72223 135.465 6.5131C135.289 6.52784 135.105 6.54117 134.933 6.5744C134.611 6.63515 134.212 6.7271 134.25 6.91946C134.307 7.20237 134.82 7.09156 135.161 7.13203C136.033 7.22294 136.867 7.0207 137.739 7.05096C138.194 7.06108 138.67 7.05046 138.878 7.33373C139.087 7.58683 138.878 7.80008 138.575 7.98232C138.499 8.02279 138.404 8.06322 138.347 8.11381C137.455 8.87305 135.975 9.36892 135.293 10.2395C134.61 11.1203 133.264 11.0087 131.955 10.5025C131.443 11.2517 133.017 11.4245 133.074 11.951C132.606 12.6594 131.564 12.9158 129.946 12.7202C129.377 13.0644 130.419 13.3985 129.964 13.7326C129.398 14.3368 128.864 14.6794 128.154 14.7973C127.53 14.9006 126.771 14.8311 125.734 14.6135C125.094 14.4783 124.617 14.5977 124.156 14.744C125.466 14.8049 126.776 14.9308 128.086 14.8568C128.109 14.8555 128.132 14.8548 128.154 14.8544C128.495 14.8488 128.727 14.9444 128.959 15.0585C128.952 15.0585 128.946 15.0585 128.94 15.0585C128.872 15.4504 129.034 15.8672 128.154 16.0499C128.056 16.0701 127.946 16.0874 127.821 16.1015C127.101 16.1825 127.252 16.679 127.043 17.0131C126.463 17.9866 126.981 18.1686 128.154 17.9516C128.359 17.9136 128.584 17.8634 128.827 17.8031C128.884 17.7831 129.016 17.8429 129.11 17.8733C128.833 18.0846 128.509 18.2468 128.154 18.3581C127.368 18.6039 126.428 18.6009 125.488 18.3291C124.445 17.9545 123.269 17.6608 122.567 17.0635C122.302 17.023 121.98 16.922 121.961 17.195C122.533 18.1399 122.227 18.7418 120.967 19.215C121.785 19.2528 122.548 19.2756 123.211 18.8452C123.723 18.5111 124.425 18.825 124.217 19.0983C123.648 19.837 124.785 19.4838 125.184 19.5946C125.089 19.6452 124.995 19.6961 124.901 19.7568C123.327 19.7973 122.208 20.5159 120.615 20.5566C119.818 20.5769 119.04 20.8498 118.205 20.6575C118.547 20.4652 119.022 20.5054 119.439 20.4548C119.338 19.9938 119.521 19.6204 120.13 19.383C119.987 19.3941 119.841 19.3972 119.685 19.3722C119.249 19.281 118.755 19.2708 118.47 19.038C118.356 18.9773 118.243 18.9059 118.129 18.8452C117.883 18.6226 117.446 18.4908 117.427 18.1669C117.389 17.4989 116.822 17.2766 115.873 17.6409C114.508 18.1673 113.066 18.3593 111.454 18.42C110.791 18.4504 110.126 18.5824 109.993 19.038C109.159 19.4832 107.793 19.2812 106.978 19.7469C106.655 20.2122 105.915 20.2022 105.194 20.1819C104.436 20.1919 103.658 20.0305 102.9 20.2531C101.933 20.5362 101.023 20.3839 100.72 19.8576C100.379 19.2503 101.27 19.0382 102.294 18.9876C102.521 18.9774 102.73 18.9463 102.957 18.9361C103.734 18.9058 104.493 18.7646 105.27 18.7038C105.915 18.6532 106.428 18.4909 106.637 18.1264C107.016 17.4787 108.021 17.2864 109.121 17.2257C110.429 17.1548 111.587 16.8507 112.743 16.5672C113.881 15.5045 115.872 15.5959 117.75 15.5251C119.004 15.7237 119.857 15.3546 120.739 15.0337C120.098 14.9784 119.45 14.9643 118.794 15.008C118.282 15.0485 117.846 15.1908 117.372 15.2819C116.348 15.4844 115.398 15.4642 114.753 14.8973C114.582 14.8366 114.374 14.7959 114.166 14.7757C113.35 14.6137 112.877 14.7253 112.877 15.2315C112.839 15.3124 112.762 15.3931 112.686 15.4638C111.795 15.98 110.695 16.0511 109.482 15.9196C109.141 15.9196 108.818 16.0412 108.476 16.0007C108.021 15.9703 107.66 16.0712 107.243 16.1826C106.2 16.4457 105.119 16.5472 104.303 15.9196C104.27 15.8755 104.25 15.8312 104.237 15.7871C103.134 15.8368 103.356 16.4463 103.374 16.7699C103.431 17.8631 102.502 17.3879 101.668 17.1347C101.478 17.074 101.346 16.9725 101.175 16.8915C100.265 16.77 100.549 16.4663 100.796 16.1727C101.716 15.5327 102.987 15.5883 104.229 15.6102C104.325 15.4102 104.535 15.2502 104.816 15.1198C105.044 15.0489 105.271 14.9879 105.479 14.9171C106.029 14.5627 106.295 14.1777 105.024 14.3802C103.773 14.5724 103.28 13.8747 102.294 13.8948C101.327 13.915 101.212 14.755 99.9991 14.6135C99.2405 14.5325 98.2734 14.8055 97.7803 14.2487C97.8181 13.6212 97.2859 13.2671 96.0912 13.176C95.8641 13.6313 96.8689 13.8339 96.7747 14.2487C96.5471 14.9067 95.4283 14.7757 94.6318 14.9477C93.7406 14.968 92.6411 15.2814 92.2426 14.5127C92.1857 14.4419 92.1849 14.3002 92.0148 14.31C91.8061 14.3404 91.8049 14.5024 91.6721 14.6037C89.9842 15.555 87.5573 15.6364 85.4713 16.1223C85.2215 16.1655 84.9925 16.2306 84.7675 16.3003C84.9769 16.4788 85.5136 16.5461 86.1732 16.5573C86.0215 16.8408 85.641 16.8209 85.3565 16.8816C84.9025 17.064 85.2619 17.4788 84.6175 17.6103C83.9539 18.1365 83.1009 17.894 82.2857 17.7724C81.2805 17.7724 80.2928 17.772 79.3446 17.5391C78.5863 17.3571 77.828 17.4484 77.0887 17.6103C76.0077 17.8533 74.9267 18.0765 73.8457 18.3093C73.125 18.4612 73.086 18.2477 73.1808 17.9643C73.1998 17.8733 73.2392 17.792 73.2771 17.7111C73.8464 17.1144 75.4959 17.2862 75.9701 16.6285C76.6295 16.544 77.2587 16.4312 77.861 16.2874C75.6492 16.5529 73.2953 16.4242 71.1527 16.8816C70.1666 17.5902 68.8007 17.8838 67.2078 17.985C66.6958 18.0154 66.221 18.1265 66.0502 18.42C65.8995 18.6682 65.5976 18.8267 65.2464 18.9619C66.399 19.1325 67.5956 18.9809 68.7654 19.0459C68.7767 19.0428 68.7894 19.0412 68.8006 19.038C70.1281 18.7241 71.6073 18.8554 72.84 18.9668C73.921 19.068 73.1237 19.5241 72.4789 19.7469C72.1751 20.1209 71.322 20.0703 70.886 20.3233C70.5763 20.5037 70.5268 20.7067 70.5304 20.9145C71.1532 21.2492 71.8274 21.1871 72.5548 21.0124C72.7225 20.9733 72.8968 20.9398 73.0697 20.9096C73.1171 20.8777 73.1648 20.8435 73.2197 20.8097C73.3018 20.8097 73.3839 20.8097 73.466 20.8097C74.0728 19.4431 76.1016 19.7567 77.8462 19.7568C77.9219 19.7568 77.9983 19.7566 78.074 19.7667C78.7757 20.2627 79.4978 20.4555 80.3132 19.828C80.5029 19.6862 80.8437 19.6346 81.2041 19.6144C82.0763 19.6954 82.9491 19.7565 83.3284 20.2828C83.499 20.5053 83.9342 20.5059 84.3323 20.4756C84.9771 20.2528 84.7132 19.8272 85.0546 19.5234C85.586 19.0378 87.065 18.8256 87.8235 19.2001C88.2775 19.4227 87.861 19.5546 87.5957 19.7063C88.2594 20.3032 89.0945 19.9292 89.8719 19.828C91.2751 19.5445 92.6781 19.3211 94.1762 19.564C95.0674 19.5336 96.0536 19.2302 96.7932 19.6856C97.3242 20.0096 97.9497 20.4352 97.3618 20.8908C96.679 21.427 95.258 21.528 94.5373 21.2853C92.8304 20.7082 91.1978 21.1744 89.6237 21.225C88.3533 21.2656 87.0061 21.6191 85.7547 21.9329C85.622 21.9733 85.471 22.0038 85.3194 22.014C84.8834 22.1152 84.922 22.2874 85.0546 22.4797C85.2442 22.6416 85.2246 22.8343 85.2435 23.0165C84.7631 23.2798 84.6557 23.8068 84.9212 24.5965C84.7506 24.7076 84.5411 24.728 84.3137 24.637C84.3199 24.6436 84.3261 24.6502 84.3323 24.6568C83.5359 24.8795 82.7394 25.1124 81.9431 25.335C81.3935 25.163 81.1475 24.9811 81.9431 24.809C82.493 24.6066 82.6069 24.4032 81.9431 24.2109C81.2036 24.0085 80.463 23.8168 79.5909 23.7966C78.0739 23.7663 76.5943 24.0085 75.0773 23.8668C74.5089 23.8165 74.1873 24.07 73.8272 24.2623C73.5427 24.4445 73.1624 24.6167 73.7883 24.809C72.8402 25.3353 72.0621 25.4663 71.588 24.5856C71.4172 24.2517 70.9245 24.0594 70.2989 23.938C69.0095 23.695 68.1945 23.4621 68.0616 22.4905C67.9676 21.8077 67.7422 21.5231 69.034 21.3604C67.9193 20.755 66.4758 21.0427 65.2168 21.0628C64.8282 21.0694 64.4486 21.0917 64.0768 21.1275C62.1438 21.3137 60.4246 21.8641 58.7863 22.45C58.5019 22.5512 58.0292 22.6925 58.2751 22.9453C58.4837 23.1781 58.9382 23.1179 59.3364 23.0976C60.3415 23.047 61.3278 23.0064 62.1812 22.6319C62.7061 22.3984 63.3928 22.2942 64.0768 22.3271C64.1339 22.3299 64.1911 22.3336 64.2481 22.3383C64.9878 22.399 65.879 22.6016 65.9169 22.9661C65.9547 23.3406 65.0075 23.2093 64.5334 23.2093C64.3553 23.2093 64.2059 23.2288 64.0768 23.262C63.3534 23.4477 63.2665 24.0622 62.3331 24.0794C62.3293 24.0788 62.3257 24.078 62.322 24.0774C61.4786 24.3376 60.6524 24.5925 59.6586 24.2722C59.6445 24.2698 59.6302 24.2676 59.616 24.2653C59.6236 24.271 59.6329 24.2762 59.6401 24.2821C59.1851 24.2821 58.7301 24.2821 58.2751 24.2821C58.2813 24.2788 58.2875 24.2755 58.2937 24.2722C57.3835 24.4139 56.4923 24.5758 55.5822 24.6973C55.1081 24.7682 54.5382 24.8391 54.1968 24.5658C53.8936 24.3129 54.3477 24.1304 54.5376 23.9281C54.5503 23.9242 54.5637 23.92 54.5765 23.9162C54.5703 23.9163 54.5642 23.9172 54.558 23.9172C54.547 23.9122 54.5357 23.9074 54.5246 23.9024C54.5291 23.9073 54.533 23.9124 54.5376 23.9172C53.4558 23.7878 52.3556 23.6496 51.2372 23.7126C51.2183 23.7201 51.1994 23.7275 51.1816 23.7353C51.1782 23.7362 51.1739 23.7364 51.1705 23.7373C50.4519 24.6167 49.6012 24.6942 48.3553 23.9686C48.0141 23.7662 47.6732 23.5839 47.1237 23.5534C47.029 23.5433 46.9146 23.5327 46.8199 23.5326C46.802 23.4852 46.7675 23.4466 46.7477 23.4001C46.7465 23.4005 46.7452 23.4008 46.744 23.4011C45.673 23.342 44.6016 23.2739 43.5306 23.2143C43.4362 23.3022 43.3068 23.3615 43.1398 23.411C41.2054 23.6033 39.3466 23.3713 37.4502 23.2093C35.5349 23.2902 33.9792 22.5205 32.0828 22.5508C29.7882 22.5912 28.005 21.7612 25.8431 21.5789C23.947 21.2044 22.0509 20.8402 20.1738 20.4657C19.1373 20.0094 17.4751 20.0733 16.7882 19.3385C16.7473 19.3486 16.7056 19.3599 16.6641 19.3722C15.9626 19.3417 15.5642 19.038 14.9954 18.8659C14.142 18.7647 13.63 18.3798 12.9284 18.157C12.2003 17.5805 11.4784 17.0044 10.7559 16.4278C10.2309 16.2554 9.70933 16.0795 9.19275 15.8989C8.81339 15.312 7.67561 15.1196 6.97394 14.6946C6.96714 14.6913 6.96035 14.688 6.95356 14.6847C6.80185 14.5835 6.67003 14.4716 6.51832 14.3703C6.51879 14.3671 6.51804 14.3638 6.51832 14.3604C6.47387 14.3578 6.42942 14.3552 6.38497 14.3525C6.34052 14.3449 6.29607 14.3374 6.25162 14.3298C6.02428 14.3298 5.79696 14.3298 5.58857 14.3298C5.13974 14.0902 4.69092 13.8506 4.24209 13.611C4.08137 13.2252 3.4051 12.9627 3.24752 12.5778C3.09942 12.5453 2.9815 12.4907 2.89562 12.4265C2.68014 12.0738 2.52848 11.6918 2.68263 11.3558C2.65545 11.2349 2.64042 11.1126 2.63077 10.989C2.63077 10.7763 2.68693 10.5232 2.34555 10.4017C0.467989 9.71321 0.733112 8.53875 0.0693233 7.57695C0.0315937 7.52652 -0.0247867 7.41603 0.0119084 7.40491C1.60501 6.91895 0.618877 6.20008 0.561981 5.59262C0.467217 4.53985 1.18783 3.53766 1.18799 2.49502C1.18799 2.09004 1.51181 1.87716 2.15664 1.95815C4.29532 2.2084 6.48968 1.95351 8.61119 2.26168C8.61416 2.25821 8.61958 2.25535 8.6223 2.2518C8.6328 2.25542 8.64329 2.25905 8.65379 2.26267C9.35183 2.33326 10.0692 2.41385 10.767 2.47425C12.9662 2.66654 12.9654 2.65643 12.8895 1.5429C12.8517 0.915273 13.6866 0.530501 14.3694 0.105324C14.483 0.105324 14.578 0.105523 14.6916 0.095437ZM352.316 21.7411C353.434 21.5387 354.573 21.478 355.711 21.6501C357.038 21.7312 358.006 22.1261 358.783 22.6626C358.789 22.6626 358.796 22.6626 358.802 22.6626C357.247 23.3206 355.937 24.0995 354.572 24.9297C354.647 24.5856 354.723 24.2718 354.818 23.8164C352.409 24.3023 350.153 24.7579 347.915 25.2134C346.246 24.9097 344.539 25.2544 342.681 25.2342C344.293 24.1509 346.455 24.2115 348.465 24.1001C349.546 24.0394 350.513 23.9682 351.347 23.5534C350.949 23.3208 350.607 23.654 350.152 23.4921C350.229 23.1583 350.76 23.0871 351.253 22.9859C351.423 22.7228 350.931 22.4499 351.31 22.1969C351.594 22.0146 351.879 21.8221 352.316 21.7411ZM367.734 24.3028C367.81 24.2117 368.379 23.9991 368.701 24.3028C368.986 24.5761 369.497 24.8488 368.89 25.1828C368.663 25.1827 368.436 25.1731 368.208 25.163C367.583 24.9504 367.469 24.6267 367.734 24.3028ZM303.005 23.4219C303.555 22.9563 303.896 23.5123 304.389 23.5227C304.901 23.5227 305.243 23.5026 304.617 23.8975C304.181 24.1707 305.395 23.9079 305.622 24.2217C304.75 24.738 303.953 25.335 302.304 24.991C301.488 24.3329 302.436 23.8977 303.005 23.4219ZM122.491 21.225C123.97 20.5062 124.92 20.5463 126.475 21.4069C127.878 22.1762 126.436 22.571 125.469 23.148C126.56 23.148 127.601 23.1481 128.154 23.4669C128.437 23.6303 128.592 23.8775 128.56 24.2514C128.428 24.3525 128.277 24.444 128.201 24.5451C128.182 24.5662 128.167 24.589 128.154 24.6125C128.069 24.7571 128.042 24.9283 127.651 24.9198C127.215 24.8995 127.156 24.7075 127.156 24.5253C127.194 23.8065 126.967 23.3609 125.241 23.6443C124.71 23.7353 123.933 23.3604 123.25 23.1984C122.947 22.8037 122.245 22.4392 122.852 21.9636C122.852 21.7105 123.193 21.4072 122.53 21.225C122.517 21.225 122.504 21.225 122.491 21.225ZM51.1816 21.9329C51.7609 22.4366 51.9924 22.9093 51.2983 23.3378C51.378 23.3292 51.4552 23.3358 51.5279 23.3566C52.5423 22.7683 53.3632 22.9948 54.1301 23.4901C54.1335 23.4844 54.1354 23.4782 54.1394 23.4723C54.3168 23.348 54.5081 23.2666 54.7228 23.2578C54.6493 23.1897 54.5827 23.1189 54.5191 23.0472C54.4555 22.8897 54.485 22.764 54.5728 22.6576C54.1524 22.4419 53.6609 22.2609 53.2319 22.0486C53.2253 22.047 53.2181 22.0462 53.2115 22.0446C53.0029 21.994 52.7742 22.0147 52.5466 22.0249C52.0916 22.0248 51.6556 21.9734 51.1816 21.9329ZM158.753 21.7915C159.379 21.8118 159.322 22.1059 159.455 22.3185C159.55 22.4803 159.646 22.652 159.74 22.8138C159.077 23.5023 158.355 22.9865 157.635 22.8346C157.635 22.8379 157.635 22.8412 157.635 22.8445C157.312 22.642 157.54 22.4493 157.692 22.2671C157.9 22.0243 158.128 21.7714 158.753 21.7915ZM365.021 11.9302C365.761 12.5984 367.184 12.4268 368.227 12.7508C368.227 12.7521 368.225 12.7535 368.225 12.7548C370.804 12.4671 373.272 13.1549 375.852 12.994C376.117 12.9741 376.249 13.1048 376.154 13.2363C375.983 13.4489 375.604 13.3883 375.282 13.3984C373.537 13.4389 371.869 13.6214 370.162 14.1172C371.357 14.7041 372.494 14.0569 373.518 14.2695C373.465 14.3211 373.414 14.3739 373.361 14.4267C373.446 14.3868 373.517 14.3406 373.555 14.2794C374.693 13.7934 376.08 14.2596 377.275 14.0065C377.937 14.2513 379.076 13.9267 379.49 14.489C380.203 14.3013 380.907 14.1503 381.712 14.3604C381.523 15.3018 382.394 15.7979 384.062 15.97C384.069 15.9667 384.076 15.9634 384.083 15.9602C383.4 16.4967 382.906 16.932 381.901 16.0007C381.655 15.7679 380.764 15.0692 379.493 15.1296C379.357 15.1352 379.203 15.058 379.045 14.9635C379.042 14.9644 379.041 14.9666 379.038 14.9675C378.545 15.4838 378.316 16.1021 376.932 16.2034C376.752 16.2174 376.634 16.3668 376.547 16.5247C377.204 16.536 377.844 16.5056 378.43 16.1925C379.265 15.7371 380.706 16.1521 380.934 16.3141C381.56 16.7594 382.507 16.5879 383.114 16.8609C381.901 17.1341 380.536 17.0534 379.36 17.4076C378.197 17.5761 376.931 17.099 375.782 17.4066C375.745 17.5069 375.715 17.6087 375.684 17.7092C376.287 17.6392 376.875 17.5884 377.425 17.7418C378.297 17.9949 378.658 17.3269 379.378 17.5796C379.378 17.5866 379.378 17.5935 379.378 17.6004C379.384 17.6032 379.57 17.7019 379.664 17.7418C380.119 18.0253 379.929 18.3494 379.892 18.6633C379.892 18.8859 379.796 19.0883 379.417 19.2199C379.038 19.3717 378.62 19.4025 378.165 19.3722C376.99 19.2912 376.136 19.5744 375.567 20.1008C375.263 20.3742 374.979 20.5969 374.296 20.4756C373.651 20.2123 373.233 20.6175 372.683 20.6377C372.077 20.6579 371.469 20.6681 370.938 20.4657C370.711 20.4657 370.484 20.4657 370.257 20.4657C370.254 20.4637 370.25 20.4618 370.248 20.4597C370.245 20.4659 370.242 20.4722 370.238 20.4785C370.577 20.8713 370.406 21.0217 369.649 20.7692C369.005 20.5667 368.208 19.6252 368.057 20.9205C368.057 20.9811 367.716 21.1032 367.564 21.0935C367.109 21.053 366.9 20.8394 366.956 20.6268C367.087 20.071 367.583 19.6131 368.407 19.2614C367.763 19.309 367.46 18.9455 366.881 18.8956C366.558 19.2095 366.69 19.7262 365.477 19.5946C365.098 19.5545 365.553 19.9997 365.154 20.1414C364.158 20.3019 363.199 20.5307 362.13 20.5052C362.409 20.7094 362.737 20.8904 362.461 21.1845C362.064 21.6095 362.443 21.9437 363.145 22.1158C364.224 22.3889 363.373 22.5913 363.145 22.8138C362.014 22.6654 360.524 21.9077 360.404 21.4198C360.395 21.4185 360.385 21.4181 360.376 21.4168C360.376 21.3595 360.376 21.3021 360.376 21.2448C360.372 21.2393 360.37 21.2334 360.367 21.228C360.363 21.2301 360.359 21.2328 360.356 21.2349C360.362 21.2382 360.369 21.2415 360.376 21.2448C359.807 21.1739 359.047 21.2549 359.161 20.698C359.199 20.4958 358.688 20.5161 358.404 20.4657C357.683 20.5163 357.038 20.7483 356.279 20.7079C355.369 20.6978 355.103 21.2146 354.364 21.3565C352.866 21.6501 351.177 21.1336 349.736 21.7006C349.489 21.7916 349.09 21.5787 349.128 21.3763C349.204 21.0121 348.731 20.9408 348.276 20.8295C348.978 19.8679 349.963 19.0376 351.632 18.4606C352.258 18.3796 352.581 18.5517 352.714 18.8452C352.79 18.9869 352.676 19.1491 352.903 19.2604C353.074 19.3587 353.309 19.3734 353.538 19.3939C353.179 19.3548 352.797 19.3162 352.827 19.0884C352.865 18.7239 352.581 18.2281 353.662 18.1066C355.027 18.1165 354.554 17.287 355.368 17.0438C355.375 17.0447 355.382 17.0458 355.388 17.0467C356.722 16.4256 358.278 16.0698 360.054 15.97C360.641 15.8893 361.229 16.0102 361.684 15.9799C361.228 15.9597 360.621 15.9699 360.033 15.8484C359.104 15.8181 358.175 15.7876 357.227 15.7674C357.19 15.6864 357.15 15.5952 357.113 15.5142C358.402 15.7572 358.44 14.3002 360.28 15.0693C360.469 15.1503 361.665 14.5126 362.537 14.3505C363.334 14.2088 363.865 13.6724 365.003 14.0065C365.42 14.1279 365.742 13.6315 366.197 13.4795C366.202 13.469 366.209 13.459 366.214 13.4488C365.471 13.0453 364.313 12.7559 365.021 11.9302ZM165.05 18.602C164.785 17.7013 165.145 17.5598 167.023 17.7319C166.624 18.0559 165.506 18.3596 167.004 18.7038C167.819 18.8961 167.458 19.1392 166.832 19.21C165.903 19.3114 165.562 19.7468 164.974 20.091C165.733 20.01 166.473 19.9087 167.232 19.8378C167.478 19.8178 167.705 19.8883 167.667 20.0297C167.629 20.1815 167.345 20.1619 167.117 20.172C166.131 20.2429 165.24 20.5867 164.178 20.526C163.875 20.5057 163.627 20.587 163.57 20.7692C163.533 20.9412 163.723 21.0525 164.008 21.1133C164.595 21.2449 165.126 21.4276 165.315 21.7717C165.448 22.0248 165.713 22.3385 165.315 22.541C164.841 22.7835 164.557 22.4594 164.254 22.3076C163.97 22.1762 163.609 22.2467 163.287 22.2265C162.168 22.1557 161.903 21.7918 161.941 21.225C162.016 20.3341 163.249 19.8377 164.102 19.21C164.102 19.2133 164.102 19.2166 164.102 19.2199C164.519 19.058 165.183 19.0575 165.05 18.602ZM148.568 21.6294C148.777 21.5585 149.251 21.6196 149.195 21.7816C148.988 22.3316 147.803 22.0917 147.372 22.3986C146.88 22.4184 146.426 22.2971 146.596 22.1455C147.013 21.7812 147.924 21.8317 148.568 21.6294ZM197.501 21.3357C198.259 21.3357 199.037 21.3565 199.796 21.3565C199.511 21.559 198.903 21.5993 198.827 21.9131C198.429 21.9131 198.03 21.9235 197.651 21.9032C196.249 21.8222 197.103 21.5584 197.501 21.3357ZM226.29 17.0942C226.574 17.7419 225.645 17.9953 224.925 18.3192C224.763 18.6701 224.393 18.9464 223.901 19.1388C224.105 19.1512 224.315 19.1733 224.527 19.21C223.958 19.8175 222.913 19.7768 221.889 19.7667C221.895 19.7736 221.902 19.7805 221.908 19.7874C221.054 20.0907 219.727 19.8785 219.215 20.5161C219.215 20.6578 219.178 20.7995 219.159 20.9412C219.121 21.3865 218.21 21.4472 217.85 21.7609C217.812 21.7912 217.319 21.7613 217.3 21.7006C217.072 21.3869 217.471 21.0731 217.491 20.7998C217.547 19.666 219.272 19.8172 220.467 19.5541C220.739 19.5105 221.008 19.4579 221.278 19.4068C220.778 19.351 220.274 19.2415 219.804 19.0686C219.81 19.0686 219.816 19.0686 219.822 19.0686C219.064 18.5725 220.392 18.3084 220.259 17.8832C220.904 17.9642 221.207 18.1874 221.643 18.4606C222.383 18.9263 223.256 18.5716 223.673 18.0957C224.223 17.4885 224.906 17.0436 226.29 17.0942ZM256.692 21.316C257.659 21.1945 258.607 21.1641 259.592 21.2349C260.275 21.2855 260.447 21.4372 260.105 21.751C260.099 21.7543 260.093 21.7576 260.087 21.7609C258.851 21.6046 257.531 21.7316 256.307 21.5286C256.103 21.4948 255.902 21.4519 255.705 21.397C255.904 21.3783 256.103 21.3634 256.307 21.3475C256.433 21.3377 256.561 21.3276 256.692 21.316ZM34.948 20.9106C34.7231 20.2274 34.1347 19.8817 32.9255 19.9565C33.0561 20.0647 33.2642 20.1488 33.4107 20.2531C34.2447 20.8401 34.0365 21.204 32.6718 21.4672C32.6498 21.4713 32.628 21.4764 32.6069 21.4811C33.2138 21.4728 33.8284 21.5111 34.435 21.4979C35.0024 21.5585 35.5669 21.6366 36.1333 21.7104C36.1406 21.6812 36.157 21.6509 36.1796 21.6195C36.245 21.5846 36.3109 21.5499 36.3778 21.5167C36.3813 21.5125 36.3835 21.508 36.3871 21.5038C36.3173 21.5333 36.2477 21.5616 36.1796 21.5888C35.2694 21.6293 35.0618 21.2447 34.948 20.9106ZM190.578 19.1388C190.938 19.0375 191.014 18.5722 191.602 18.9164C192.038 19.1694 192.418 19.4734 191.735 19.8378C191.28 20.0808 190.824 20.2424 190.198 20.1918C190.103 20.6474 191.013 20.3442 191.07 20.7188C190.028 20.5468 189.08 20.8192 188.094 20.8295C187.545 20.4651 186.826 20.5183 186.123 20.5319C186.279 20.6498 186.299 20.8071 186.122 21.0223C185.515 21.5083 184.565 21.3464 183.712 21.3565C183.921 20.9212 183.75 20.3639 185.001 20.2828C185.001 20.2864 185.001 20.29 185.001 20.2936C185.134 20.233 185.267 20.1615 185.399 20.1008C187.315 20.0603 188.966 19.6045 190.578 19.1388ZM166.795 13.6515C167.478 13.6009 167.895 13.8444 168.217 14.1785C168.634 14.634 169.071 15.1094 170.208 15.1702C170.701 15.2612 171.175 15.2108 171.649 15.1198C171.934 15.0793 172.125 14.9677 172.372 14.8765C173.737 14.6642 175.234 14.8565 176.543 14.4722C177.112 14.3405 178.212 14.3 178.117 14.4722C177.852 14.9479 178.363 15.5651 177.415 15.889C176.998 16.0408 176.676 16.2438 176.278 16.3754C175.443 16.6487 174.06 16.7797 175.767 17.4175C175.823 17.4382 175.671 17.6404 175.633 17.7517C175.768 17.8476 175.862 17.9505 175.889 18.0641C176.221 18.0166 176.454 18.1221 176.618 18.3291C176.618 18.3864 176.618 18.4438 176.618 18.5011C177.358 18.9667 176.79 19.4121 176.581 19.8675C176.316 20.1712 175.728 20.1922 175.235 20.3035C175.229 20.3002 175.223 20.2969 175.216 20.2936C174.553 20.486 173.869 20.6775 173.205 20.8799C173.092 20.8597 172.996 20.8505 172.883 20.8404C173.167 20.1318 173.13 19.3622 174.722 18.9876C175.132 18.8896 175.007 18.7654 174.827 18.6336C174.065 18.8035 173.342 19.0284 172.485 19.038C172.106 18.9874 171.764 18.8762 171.423 18.775C170.418 18.5016 170.341 18.167 171.157 17.7418C171.631 17.4988 172.371 17.4282 172.788 16.9222C171.764 17.0335 171.499 17.4787 170.949 17.6914C169.546 18.2279 168.9 18.1772 168.123 17.3473C167.421 16.6083 164.217 16.2238 162.965 16.7096C162.51 16.8918 162.433 17.0737 162.68 17.3167C162.907 17.5596 163.286 17.7421 163.513 17.985C163.741 18.2279 164.101 18.4503 163.722 18.7236C163.362 18.9767 162.869 18.977 162.376 18.8353C162.262 18.7747 162.149 18.714 162.035 18.6534C162.029 18.6633 162.023 18.6732 162.017 18.683C161.543 18.0859 160.992 17.5597 159.494 17.6202C158.394 17.6708 158.298 17.1949 158.127 16.7798C157.843 16.1017 157.236 15.6868 155.756 15.9602C155.263 16.0513 154.448 16.1825 154.486 15.707C154.524 15.3528 155.055 14.8668 155.832 14.9576C156.857 15.0892 157.977 14.9582 158.944 15.272C159.153 15.3125 159.494 15.3826 159.57 15.3017C160.348 14.3909 161.845 14.2897 163.419 14.2695C163.627 14.2695 163.818 14.1681 164.008 14.1073C164.766 13.662 165.828 13.7123 166.795 13.6515ZM142.595 18.9164C142.88 18.7342 143.392 18.5721 143.562 18.9668C143.657 19.2097 144.416 19.5646 143.373 19.7469C142.811 19.847 142.156 19.8186 141.738 20.1117C141.644 20.1417 141.55 20.1718 141.456 20.1918C140.585 20.3336 142.273 20.6781 141.268 20.8097C140.452 20.911 140.129 20.5865 139.712 20.3233C139.428 20.0096 139.637 19.8177 140.225 19.7063C141.116 19.5342 141.951 19.3112 142.595 18.9164ZM141.723 20.1206C141.728 20.1174 141.734 20.1148 141.738 20.1117C141.739 20.1114 141.74 20.1111 141.742 20.1107C141.736 20.114 141.729 20.1173 141.723 20.1206ZM186.216 18.9767C186.33 18.8051 186.841 18.8554 187.107 18.9767C187.448 19.1488 187.24 19.3112 186.955 19.4226C186.462 19.6148 185.931 19.7766 185.42 19.9486C185.413 19.9522 185.406 19.9558 185.399 19.9595C184.565 19.9291 183.711 19.9797 182.953 19.7469C183.01 19.6659 183.086 19.5135 183.086 19.5135C184.357 19.716 185.59 19.9182 186.216 18.9767ZM245.824 17.1446C245.824 16.5372 247.152 16.4357 247.456 16.7392C248.171 17.4624 249.37 17.3988 250.982 17.5559C249.295 17.856 248.09 18.0676 246.867 18.2787C246.658 18.3192 246.43 18.3896 246.222 18.3795C244.762 18.2681 243.093 17.9141 243.453 19.3514C243.472 19.4526 241.841 19.7664 240.779 19.736C241.651 19.2197 241.519 18.3997 242.979 18.0859C243.51 17.9745 243.966 17.7724 244.611 17.7724C245.369 17.7724 245.805 17.6608 245.824 17.1446ZM373.144 17.8486C372.16 18.0002 371.469 18.4846 370.787 18.9876C370.587 19.1298 370.365 19.2531 370.103 19.3484C370.443 19.4266 370.568 19.5251 370.548 19.7271C371.179 19.0307 372.235 18.4776 373.12 17.8634C373.127 17.8583 373.136 17.8538 373.144 17.8486ZM361.378 19.1794C361.143 19.2795 360.85 19.3554 360.489 19.4018C360.167 19.4448 359.78 19.4881 359.72 19.649C359.91 19.5385 360.187 19.4657 360.528 19.4226C360.901 19.3738 361.18 19.2909 361.378 19.1794ZM204.915 17.9039C206.925 17.7217 208.14 18.4909 209.714 18.5011C210.26 18.5112 210.842 18.5015 211.036 18.8679C210.696 19.0392 210.376 19.2108 210.036 19.3821C209.391 19.4023 208.727 19.4221 208.082 19.4424C207.836 19.5234 207.666 19.7056 207.306 19.5946C207.173 18.8454 206.887 18.1368 204.915 17.9039ZM62.9035 16.8223C62.4137 16.3044 61.5358 16.0881 60.455 16.2736C59.8863 16.3748 59.4121 16.4967 59.5827 16.8915C59.5791 16.8954 59.5734 16.8986 59.5697 16.9024C59.5803 16.9016 59.5923 16.9023 59.6031 16.9014C59.7355 16.9519 59.8485 17.013 59.9809 17.0635C59.9797 17.0635 59.9784 17.0635 59.9772 17.0635C60.2958 17.0815 60.6493 17.0381 60.8921 17.3671C59.2042 17.2962 57.8188 17.8332 56.1878 17.7724C55.583 17.7523 54.9387 17.7416 54.6154 18.1224C56.1686 18.6209 58.2622 18.4535 59.6031 19.2298C59.6052 19.2333 59.6065 19.2372 59.6086 19.2407C60.3262 19.263 60.8758 19.645 61.7645 19.5037C60.8748 18.9141 61.226 18.7243 62.0349 18.683C62.0812 18.2243 61.9789 17.7464 62.6368 17.3572C62.687 17.1497 62.7774 16.9721 62.9035 16.8223ZM211.042 18.8758C211.04 18.8731 211.037 18.8706 211.036 18.8679C211.038 18.8671 211.04 18.8668 211.042 18.8659C211.042 18.8692 211.042 18.8725 211.042 18.8758ZM228.129 18.3291C228.357 17.8229 229.078 18.4099 229.59 18.42C230.424 18.4403 231.24 18.4611 232.074 18.4813C231.429 18.7545 230.689 18.7443 229.931 18.7038C229.817 18.7038 229.685 18.7035 229.609 18.6732C229.135 18.4808 227.882 18.8859 228.129 18.3291ZM138.043 15.4233C138.688 15.7473 139.769 15.191 140.319 15.7377C140.357 16.1525 139.637 16.446 139.693 16.8609C139.693 16.8711 139.693 16.8813 139.693 16.8915C140.604 17.4787 142.178 16.8713 143.088 17.4383C143.088 18.1266 141.874 17.7828 141.381 18.0157C140.282 18.511 140.224 18.066 139.656 17.6815C139.144 17.3272 138.006 17.4683 137.228 17.7517C137.095 17.8023 137.076 18.025 136.83 17.9643C134.971 17.5087 133.68 18.1471 132.22 18.5723C131.443 18.8046 130.798 18.39 129.794 18.4102C130.951 17.8635 131.88 17.4885 133.131 17.5391C134.573 17.5999 135.786 17.4886 136.317 16.6483C136.923 16.4864 136.621 16.3044 136.356 16.1223C137.133 16.0412 137 15.3222 138.043 15.4233ZM197.784 15.7476C199.074 14.2694 200.175 15.6659 201.37 15.8178C201.464 15.8281 201.54 15.8891 201.635 15.9295C201.407 16.1522 200.97 16.1117 200.629 16.1826C199.946 16.2637 199.566 16.9118 198.599 16.5069C197.196 16.4765 195.793 16.4259 194.523 16.851C194.494 16.8443 194.471 16.8358 194.45 16.8282C194.046 17.1605 194.096 17.5641 194.03 17.9445C194.036 17.9478 194.042 17.9511 194.049 17.9544C193.439 17.9944 192.834 18.0586 192.23 18.1291C190.391 18.3436 188.56 18.6161 186.633 18.4408C187.031 17.8537 187.031 17.863 188.32 17.7922C189.06 17.7517 189.99 17.9343 190.407 17.4383C190.817 16.9508 189.546 16.9028 189.429 16.5267C189.426 16.5267 189.423 16.5267 189.42 16.5267C189.42 16.5257 189.419 16.5247 189.418 16.5237C189.421 16.524 189.424 16.5245 189.428 16.5247C189.426 16.5188 189.421 16.513 189.42 16.5069C189.418 16.5069 189.415 16.5069 189.413 16.5069C189.415 16.5125 189.416 16.5181 189.418 16.5237C188.992 16.4909 188.638 16.3717 188.396 16.1826C187.713 15.8791 186.841 15.8178 186.083 15.6052C186.784 15.3825 187.581 15.312 188.359 15.2513C188.359 15.2447 188.359 15.2381 188.359 15.2315C188.586 15.2921 188.795 15.3525 189.022 15.4233C189.152 15.7809 189.282 16.1397 189.413 16.5069C189.637 16.5066 189.861 16.4962 190.085 16.4763C190.805 16.4438 191.517 16.3665 192.23 16.3039C192.897 16.2454 193.565 16.1996 194.241 16.2152C194.125 16.1869 194.073 16.127 194.2 15.9799C195.319 16.0203 196.324 15.5859 197.462 15.7782C197.557 15.7984 197.746 15.7778 197.784 15.7476ZM51.2761 16.4763C50.1951 16.5876 49.1325 16.7495 48.0516 16.9014C48.0441 16.9012 48.0368 16.9006 48.0293 16.9004C48.0587 17.1577 47.9254 17.4163 47.8626 17.6706C47.7299 18.2578 48.2799 18.3193 49.1332 18.2282C50.0624 18.2282 50.9918 18.2076 51.9021 18.2885C52.1249 18.2885 52.3323 18.2633 52.5522 18.2361C52.4113 17.9322 52.4083 17.6107 52.3577 17.3068C52.2783 16.807 52.6758 16.5703 53.4189 16.7313C53.4326 16.5789 53.326 16.465 52.7374 16.497C52.2793 16.5276 51.7896 16.557 51.4705 16.3873C51.4055 16.4157 51.3395 16.4446 51.2761 16.4763ZM362.267 17.2326C360.765 17.0994 359.586 17.5125 358.52 18.16C358.901 18.0096 359.292 17.8784 359.793 17.9C359.774 17.52 360.417 17.3556 361.228 17.286C361.567 17.2566 361.916 17.2437 362.267 17.2326ZM373.917 17.8001C374.033 17.812 374.149 17.8193 374.267 17.8209C374.146 17.8097 374.03 17.803 373.917 17.8001ZM368.171 17.3621C367.733 17.5402 367.267 17.6789 366.71 17.7052C366.71 17.7169 366.707 17.7279 366.705 17.7388C367.27 17.7013 367.735 17.5483 368.171 17.3621ZM340.083 16.4565C340.917 16.3148 341.77 15.9096 342.566 16.4861C343.799 16.3545 344.995 16.9114 346.246 16.5672C346.246 16.5705 346.246 16.5738 346.246 16.5771C347.251 16.7492 348.124 16.9319 349.034 16.3349C349.603 15.9604 350.418 16.4459 351.347 16.5069C349.944 16.8915 348.768 17.2152 347.593 17.5391C346.929 17.6404 346.188 17.2454 345.581 17.6301C344.273 17.6805 343.098 17.2961 341.827 17.2455C341.353 17.0228 340.859 16.8912 340.196 16.8609C339.494 16.8304 339.457 16.6488 340.083 16.4565ZM325.29 16.324C325.954 17.0123 327.072 16.6692 328.02 16.6691C328.191 16.8006 328.589 17.0024 327.964 17.0329C327.206 17.0734 326.75 17.2863 326.333 17.5698C325.441 17.5698 324.531 17.5695 323.64 17.5796C323.791 17.5088 323.943 17.3974 324.114 17.3671C324.664 17.2963 325.573 17.4078 324.701 16.8411C324.416 16.6487 324.816 16.4151 325.29 16.324ZM251.021 17.5599C251.008 17.5586 250.995 17.5572 250.982 17.5559C250.995 17.5536 251.008 17.5523 251.021 17.55C251.021 17.5533 251.021 17.5566 251.021 17.5599ZM99.4305 14.7144C99.9992 14.6032 100.587 14.5631 100.814 14.9576C101.079 15.4333 100.359 15.3829 99.8473 15.4638C98.937 15.6056 98.0456 15.7883 97.1543 15.9503C97.1475 15.9503 97.1407 15.9503 97.1339 15.9503C96.2621 16.0717 95.4092 16.2336 94.5373 16.2943C93.6081 16.3652 92.9445 16.3549 92.7926 17.0734C92.6599 17.6809 91.5972 17.6304 90.7627 17.2356C91.0472 16.3953 90.953 15.4234 93.1908 15.2918C93.9682 15.2413 94.7841 15.3221 95.4856 15.0792C96.8508 15.0994 98.1601 14.9573 99.4305 14.7144ZM291.156 15.2522C291.438 15.3986 291.807 15.5131 292.176 15.4638C293.408 15.2921 293.257 16.0209 293.921 16.2133C293.919 16.2179 293.825 16.4153 293.769 16.4258C292.707 16.4663 292.498 17.1652 291.511 17.2563C290.146 17.398 289.881 17.2559 290.128 16.5069C290.544 16.1132 289.451 15.347 291.156 15.2522ZM146.805 16.3349C147.109 16.0008 147.658 15.859 148.094 16.1727C148.512 16.4562 149.025 16.4457 149.537 16.5267C149.53 16.5267 149.524 16.5267 149.517 16.5267C149.005 17.1544 148.076 17.3467 146.881 17.2455C146.881 17.2389 146.881 17.2323 146.881 17.2257C146.862 16.9322 146.843 16.6284 146.805 16.3349ZM368.966 16.9924C368.91 17.0149 368.867 17.0388 368.823 17.0655C368.839 17.0582 368.856 17.0511 368.872 17.0438C369.042 16.9628 368.796 17.0732 368.966 16.9924ZM223.634 16.6176C224.753 15.9394 225.854 16.2031 227.086 16.1727C226.1 16.8409 224.999 16.6075 223.634 16.6176ZM319.713 16.3754C319.946 16.299 320.168 16.2367 320.384 16.1895C321.17 16.0175 321.882 16.0442 322.804 16.3141C321.931 16.6036 321.213 16.6124 320.384 16.4921C320.169 16.461 319.947 16.4212 319.713 16.3754ZM234.065 13.1661C234.937 12.994 235.032 13.3077 235.184 13.5912C235.544 14.2694 236.095 14.5023 237.195 13.9254C237.783 13.6116 238.428 13.7829 238.751 14.0866C239.281 14.5925 238.334 14.5125 237.878 14.573C237.025 14.6945 236.702 14.9879 236.739 15.4332C236.739 15.9292 236.209 16.1822 235.374 16.324C235.374 16.3207 235.374 16.3174 235.374 16.3141C234.635 16.385 233.876 16.507 233.174 16.2439C233.421 15.8188 234.027 15.9696 234.463 15.8989C234.88 15.828 235.64 15.8688 235.432 15.4539C235.299 15.1806 235.506 14.7549 234.539 14.7144C233.402 14.6637 232.72 14.4617 233.8 13.8443C233.893 13.7948 233.985 13.6478 233.989 13.6416C233.269 13.4494 233.25 13.3381 234.065 13.1661ZM225.323 6.34206C226.56 6.82059 226.641 6.95341 225.556 7.36042C225.924 7.29093 226.418 7.31498 226.821 7.2833C226.992 7.27322 227.144 7.27364 227.314 7.26353C227.523 7.29388 227.732 7.32437 227.94 7.3446C227.934 7.3479 227.928 7.35119 227.922 7.35449C227.466 7.61767 228.736 8.1341 227.447 8.27596C226.897 8.3367 226.688 8.92316 225.816 8.51819C225.228 8.25497 224.906 7.91104 225.077 7.61748C225.102 7.57557 225.136 7.53982 225.177 7.50873C224.564 7.76769 224.282 8.12047 224.506 8.5083C224.81 9.01452 224.469 9.51109 224.734 10.0072C224.942 10.3917 224.526 10.7562 223.578 10.7665C223.572 10.7665 223.565 10.7665 223.558 10.7665C222.856 10.4426 222.155 10.3513 221.378 10.6953C220.733 10.9788 219.898 10.8072 219.178 10.9286C219.07 10.8725 218.996 10.8191 218.948 10.7695C218.722 10.8879 218.44 10.9922 218.096 11.0799C218.381 11.3836 216.656 11.4442 217.755 11.8491C217.945 12.4564 216.941 12.2247 216.466 12.3662C215.537 12.7206 215.289 13.3277 215.024 13.8137C214.625 14.5628 214.075 14.6842 212.881 14.4109C212.634 14.3503 212.331 14.3707 212.066 14.3505C212.068 14.3492 212.068 14.3469 212.069 14.3456C211.371 14.7073 210.606 15.0322 210.662 15.6457C210.7 15.9697 210.169 16.0715 209.695 16.1727C209.695 16.1727 209.657 16.1119 209.638 16.0917C209.05 15.6868 207.856 15.3021 208.689 14.7253C209.485 14.169 210.773 14.0161 212.081 14.3387C212.853 13.7888 212.249 13.4778 211.382 13.1661C212.084 12.832 213.317 12.8819 213.601 12.1833C213.734 11.8596 214.683 11.9917 215.29 11.9816C215.764 11.9816 216.219 11.9507 216.427 11.688C216.655 11.4045 216.276 11.3228 215.877 11.252C215.499 11.1912 215.554 11.0497 215.668 10.898C215.782 10.7563 215.972 10.5842 215.896 10.4729C214.872 9.05547 216.655 8.97465 218.476 8.90378C218.463 8.90708 218.451 8.91038 218.439 8.91367C219.235 8.88334 219.935 8.89325 219.537 9.49009C219.616 9.69327 219.635 9.88178 219.598 10.0546C219.945 9.84055 220.347 9.6351 219.956 9.30816C219.633 8.90321 219.842 8.62018 220.658 8.52907C221.245 8.46821 221.492 8.21491 221.871 8.03274C222.212 7.6177 221.947 7.36434 220.904 7.2833C221.473 7.08092 221.853 6.9492 222.232 6.81762C222.914 6.87812 223.407 6.65572 223.919 6.47356C224.336 6.29137 224.83 6.34206 225.323 6.34206ZM69.9304 14.1152C69.145 14.6982 68.6188 15.3863 67.4541 15.8385C66.9042 16.0511 66.4298 16.1121 65.9558 16.0818C66.5376 16.3773 67.1 15.8539 67.7227 15.802C67.8181 15.7521 67.9131 15.7001 68.0042 15.6457C69.0279 15.5545 69.2747 14.8973 70.2415 14.7757C70.319 14.7568 70.3987 14.7406 70.4767 14.7233C70.5183 14.5548 70.5563 14.3866 70.5304 14.2181C70.5292 14.2184 70.528 14.2187 70.5267 14.219C70.3371 14.219 70.1659 14.1982 69.9952 14.1577C69.9748 14.1428 69.9512 14.1295 69.9304 14.1152ZM352.769 13.1552C354.659 12.9837 354.893 12.9832 359.265 13.8443C357.808 13.8424 356.96 14.4132 355.69 13.9046C355.197 13.7127 354.041 13.9457 354.231 14.6541C354.496 15.7067 354.041 15.8383 352.145 15.5044C351.026 15.312 351.386 15.1194 351.784 14.7549C352.183 14.4007 353.471 14.0765 352.03 13.5299C351.671 13.3883 352.239 13.2059 352.769 13.1552ZM239.603 9.71353C240.93 9.93625 240.912 10.6244 241.329 11.161C241.613 11.5152 241.007 11.4754 240.666 11.4754C239.964 11.4653 239.717 11.5966 239.982 11.951C240.343 12.447 242.032 12.7914 242.942 12.5788C243.644 12.4168 244.402 12.214 245.179 12.6796C245.173 12.6796 245.167 12.6796 245.161 12.6796C244.39 12.9834 243.301 13.2094 241.897 13.3579C242.144 13.7527 242.771 13.4994 243.188 13.5803C243.871 13.7121 245.159 14.876 244.724 15.1395C244.382 15.342 243.814 15.7268 243.094 15.2414C242.43 14.7858 241.651 14.3907 240.457 14.2794C239.85 14.2186 239.301 13.9353 240.173 13.6822C240.988 13.4393 240.4 13.186 240.514 12.7508C239.698 13.2772 238.769 13.2569 237.915 13.348C237.384 13.3986 236.797 13.4285 236.626 13.1147C236.418 12.7201 237.12 12.7608 237.575 12.6698C239.338 12.3256 239.451 12.0315 238.162 11.333C239.085 11.1845 239.565 10.6448 239.603 9.71353ZM185.855 2.81832C186.746 2.73733 187.713 2.27237 188.642 2.78866C187.903 2.98151 187.447 3.81017 186.253 3.07143C185.969 2.88986 185.779 3.2137 185.551 3.30476C185.058 3.48727 184.849 4.09389 183.901 3.65872C183.825 3.62879 183.692 3.64904 183.579 3.63895C183.787 4.39807 181.967 4.24627 181.91 4.48923C181.815 4.98529 180.943 5.52218 181.682 5.99799C182.327 6.41309 180.981 6.20048 181.36 6.50421C181.872 6.52445 182.479 6.55491 183.162 6.58528C181.494 7.35449 181.74 7.81983 183.977 8.34616C183.991 8.35508 184.004 8.36492 184.016 8.37384C184.016 8.36824 184.016 8.36264 184.016 8.35703C185.267 8.20517 185.058 7.42556 184.755 7.30407C183.465 6.72698 185.154 6.53387 185.192 6.53387C186.462 6.69574 186.728 6.2005 186.918 5.82596C188.679 6.08613 190.507 6.01586 192.23 6.20888C192.92 6.28611 193.593 6.40549 194.237 6.60505C194.105 6.9999 193.29 6.68648 192.797 6.79785C192.579 6.84572 192.361 6.90269 192.23 6.99391C192.168 7.03772 192.125 7.08942 192.113 7.1518C192.097 7.26556 192.144 7.31623 192.23 7.33808C192.351 7.36874 192.549 7.34267 192.759 7.35449C193.649 7.39519 192.627 7.77994 193.082 8.02285C193.517 8.25534 192.796 8.21443 192.569 8.22455C192.459 8.23042 192.345 8.23032 192.23 8.22796C191.95 8.2222 191.662 8.203 191.393 8.22455C191.165 8.24471 190.787 8.20487 190.957 8.51819C191.564 9.60149 190.805 10.0071 188.453 9.9261C187.259 9.88562 186.67 10.0579 186.348 10.5539C186.384 10.5614 186.413 10.5717 186.438 10.5796C186.923 10.5536 187.519 10.4465 187.866 10.5539C188.757 10.8272 189.439 11.0491 189.818 10.2899C189.914 10.1181 190.389 10.1082 190.711 10.1891C191.184 10.3106 190.881 10.4832 190.748 10.635C190.141 11.3029 188.927 11.4954 187.751 11.0601C187.315 10.8982 186.917 10.7759 186.386 10.7556C186.386 10.7415 186.386 10.7273 186.386 10.7131C186.374 10.7166 186.362 10.7225 186.348 10.726C185.95 10.9183 186.158 11.1816 186.101 11.4042C185.931 11.9507 185.722 12.3152 184.471 12.5076C182.594 12.8012 182.556 13.1755 183.921 13.9956C184.414 14.2892 184.982 14.6744 184.357 15.0288C183.674 15.4029 183.067 15.049 182.517 14.7757C180.773 13.905 180.924 13.3273 182.669 12.3959C183.295 12.0617 183.579 11.3734 183.484 10.8673C183.276 9.79434 184.053 9.31883 186.177 9.50096C187.068 9.58195 188.225 9.83456 188.642 9.3487C189.211 8.67037 190.047 7.98172 189.554 7.12116C189.212 6.52433 188.056 7.21203 187.79 6.7059C187.676 7.10075 186.519 7.16236 186.709 7.59771C186.823 7.86081 187.561 8.11364 186.803 8.33627C185.954 8.58828 185.294 9.34097 184.016 8.72878C184.016 8.72615 184.016 8.72351 184.016 8.72087C184.014 8.72261 184.011 8.72408 184.008 8.72582C184.011 8.72692 184.014 8.72769 184.016 8.72878C184.016 8.73966 184.016 8.75054 184.016 8.76141C184.011 8.75152 184.006 8.74164 184.001 8.73175C183.993 8.73793 183.986 8.74531 183.977 8.75152C183.99 8.75482 184.003 8.75812 184.016 8.76141C183.75 8.78165 183.408 8.56925 183.256 8.73076C182.896 9.07499 183.882 9.07586 183.958 9.36946C182.669 9.42007 181.398 9.45011 180.147 9.51085C179.711 9.53109 179.161 9.5514 179.01 9.81438C178.82 10.118 179.388 10.1989 179.749 10.3305C180.507 10.6038 180.526 11.1406 179.673 11.333C179.085 11.4747 178.838 11.8493 178.876 11.9203C179.255 12.791 178.42 12.8928 177.093 12.9535C175.993 13.0042 174.969 13.3377 174.153 12.6292C173.812 12.3356 173.092 12.295 172.485 12.5076C171.897 12.7101 172.239 12.872 172.448 13.1453C172.865 13.6818 171.67 13.5912 171.196 13.8038C170.968 13.8342 170.74 13.8739 170.494 13.874C169.754 13.8942 169.28 13.7021 169.223 13.3174C169.166 12.8619 169.678 12.4974 170.284 12.2545C170.948 11.9913 171.707 11.7687 172.561 11.6979C171.993 11.2431 171.911 10.9018 172.303 10.6904C171.405 10.6056 170.547 10.3476 169.773 9.75407C169.792 10.7661 168.995 11.1513 167.63 11.1818C166.132 11.2121 165.278 11.7686 164.33 12.2545C163.95 12.3557 163.02 12.0825 163.343 12.6698C163.703 13.0342 163.931 13.3889 163.23 13.7128C161.22 13.8546 159.323 14.168 157.673 14.836C157.162 14.8259 156.725 14.6841 156.251 14.5829C154.81 14.2792 153.539 14.4922 152.306 14.9072C151.604 15.0692 150.826 15.1404 150.106 15.272C148.74 15.5251 148.531 15.4639 148.398 14.6847C148.379 14.5329 148.361 14.3904 148.304 14.2487C148.114 13.8339 147.545 13.966 147.052 14.0065C145.478 13.9963 145.402 13.915 146.161 13.1255C146.142 12.8421 146.313 12.5477 145.839 12.3148C143.506 12.0313 143.525 10.847 143.07 9.98641C142.749 9.37793 142.127 8.67129 142.649 7.97539C142.632 7.97063 142.613 7.96726 142.595 7.96155C142.159 7.81981 141.306 7.88032 141.419 7.46522C141.534 7.11155 142.253 7.14178 142.803 7.10138C143.124 7.23924 143.454 7.3698 143.805 7.47313C144.209 7.36822 144.635 7.28676 145.061 7.20223C145.648 7.1111 146.218 6.90928 146.863 7.09149C147.052 7.15222 147.203 7.23314 147.298 7.35449C147.696 7.89107 147.943 8.45739 149.498 7.97144C149.933 7.83665 150.637 7.88051 151.074 8.11282C150.989 8.04609 150.906 7.97587 150.826 7.90124C151.073 7.02055 152.248 6.63529 153.708 6.44291C154.182 6.38218 154.714 6.40289 155.188 6.29163C155.567 6.20053 155.795 6.02811 155.738 5.79531C155.681 5.59295 155.416 5.49179 155.075 5.45124C154.904 5.43099 154.751 5.42083 154.58 5.4107C153.879 5.37019 153.141 5.26863 153.178 4.81352C153.216 4.32792 154.068 4.64064 154.504 4.51988C154.713 4.4592 154.846 4.36768 154.979 4.27666C155.092 4.27666 155.189 4.27614 155.303 4.2559C155.909 3.95263 156.687 4.02361 157.37 4.06409C158.166 4.1146 158.64 3.96238 159.057 3.65872C159.247 3.55754 159.494 3.51757 159.74 3.50745C159.911 3.50753 160.063 3.54807 160.214 3.58852C160.556 4.16525 162.015 4.53986 161.333 5.30886C160.954 5.48098 160.423 5.61323 160.783 5.95745C161.106 6.27109 161.75 6.33132 162.205 6.24022C163.836 5.93656 165.582 5.89613 167.232 5.64305C167.819 5.55205 168.293 5.51221 168.804 5.70434C168.792 5.69413 168.78 5.68391 168.767 5.6737C169.147 5.61296 169.544 5.55257 169.905 5.70434C170.891 5.6031 171.593 5.92657 172.314 6.1898C172.769 6.36191 173.225 6.575 173.016 6.92935C172.788 7.32407 172.124 7.37445 171.536 7.32384C171.321 7.30247 171.105 7.29221 170.888 7.28726C171.88 7.37823 172.763 7.59447 173.49 8.04263C173.661 8.23499 173.528 8.45832 173.661 8.65068C173.945 9.11595 174.703 9.32843 175.348 9.6117C175.708 9.77368 176.087 9.90562 175.992 10.1891C175.942 10.3195 175.811 10.402 175.648 10.46C175.822 10.4339 175.979 10.3889 176.107 10.3107C176.619 10.007 175.879 9.51087 176.068 9.08571C176.315 8.77197 176.562 8.45797 176.865 8.15435C177.415 7.47606 176.98 7.18211 175.633 7.07073C173.965 6.92902 172.959 5.69438 173.85 5.0261C174.115 4.99572 174.323 5.02621 174.494 5.14771C176.03 4.59087 177.853 4.67147 179.56 4.48923C179.844 4.45895 180.223 4.45872 180.28 4.3172C181.02 2.61638 183.75 3.02075 185.855 2.81832ZM292.347 8.86325C292.214 8.16504 292.933 8.33627 293.426 8.59926C293.9 8.8624 294.527 8.66066 295.001 8.88302C294.678 9.2474 294.319 9.58155 293.693 9.81438C293.693 10.0875 294.147 10.1389 294.375 10.1693C295.38 10.2705 296.101 10.3815 295.59 11.0898C295.419 11.3227 295.741 11.6567 296.538 11.8086C297.847 12.0516 295.893 11.9613 296.292 12.1536C296.728 12.5174 297.733 12.1534 298.036 12.5986C296.747 12.7707 295.57 13.1249 294.11 12.9426C293.029 12.8112 292.726 13.2569 292.593 13.8137C292.404 14.5523 293.483 14.2594 293.977 14.4207C294.394 14.5524 294.983 14.3296 295.495 14.6333C294.007 14.8545 292.743 15.3253 291.184 15.2424C291.176 15.2443 291.167 15.2463 291.159 15.2483C291.163 15.2493 291.167 15.2503 291.171 15.2513C291.166 15.2515 291.161 15.252 291.156 15.2522C291.155 15.2516 291.153 15.2509 291.152 15.2503C291.146 15.2472 291.138 15.2445 291.132 15.2414C291.136 15.2424 291.14 15.2433 291.145 15.2443C291.015 15.1151 290.903 14.986 290.772 14.8568C292.441 14.4417 291.474 13.6924 291.493 13.085C291.493 12.8319 291.492 12.72 291.91 12.5175C293.711 11.6468 293.465 10.0981 291.511 9.25774C291.398 9.22741 291.379 9.20701 291.417 9.17667C291.455 9.14654 291.492 9.13629 291.53 9.13613C291.814 9.04519 292.363 8.93414 292.347 8.86325ZM296.216 14.5928C296.784 14.239 297.448 14.5529 298.055 14.5226C298.32 14.5125 298.68 14.5225 298.623 14.7352C298.585 14.8667 298.433 15.018 298.244 15.099C298.054 15.18 297.544 15.2513 297.544 15.0792C297.525 14.5325 296.405 14.9471 296.216 14.5928ZM345.848 14.5226C346.853 14.2391 347.631 14.8561 348.599 14.7144C347.537 15.2408 346.607 15.2614 345.848 14.5226ZM331.396 14.5522C332.762 14.4645 333.653 14.5593 334.071 14.836C333.729 14.917 333.406 14.9883 333.065 15.0693C332.515 14.8972 331.207 15.4229 331.396 14.5522ZM324.342 14.3505C325.005 14.3704 326.105 13.8243 326.257 14.3911C326.446 15.0791 325.062 14.8363 324.284 14.9072C323.791 15.0489 323.488 14.9171 323.26 14.7045C323.033 14.0971 323.981 14.3303 324.342 14.3505ZM52.0614 13.0484C51.7019 13.3595 51.4338 13.7212 50.889 13.8908C51.4742 13.8207 52.0884 13.803 52.5281 14.2388C52.718 14.4359 52.7608 14.6256 52.6429 14.7945C53.3151 14.6426 54.0146 14.5414 54.7154 14.4544C54.6815 14.3893 54.6478 14.3244 54.6135 14.2596C54.272 14.177 53.9461 14.0586 53.6467 13.8849C53.3013 13.516 52.5563 13.3478 52.0614 13.0484ZM132.979 13.9758C133.34 13.6013 133.833 13.3886 134.648 13.6416C134.951 14.0871 134.364 14.3706 134.004 14.6946C133.681 14.6946 133.359 14.684 133.037 14.6739C133.037 14.4412 132.998 14.2085 132.979 13.9758ZM281.745 11.9005C281.575 10.7565 282.863 11.8289 283.281 11.596C283.287 11.5996 283.293 11.6033 283.299 11.6069C283.83 11.7587 284.323 11.7786 284.722 11.4853C285.177 11.5764 285.785 11.5862 285.861 11.9302C285.918 12.2542 285.121 11.9612 284.988 12.3662C286.505 12.2549 287.946 12.3154 289.122 12.8823C288.231 13.0747 287.396 12.9024 286.542 12.7607C284.968 12.5078 283.717 12.9127 282.484 13.348C282.352 13.3986 282.313 13.5501 282.275 13.6614C282.085 14.4916 281.188 14.7718 279.582 14.5018C280.454 14.0867 280.89 13.6008 280.378 12.9832C280.264 12.8517 279.942 12.7098 279.98 12.5986C280.17 12.1027 281.858 12.5985 281.745 11.9005ZM307.386 14.5127C308.201 14.1381 308.391 13.7122 309.264 13.8641C309.719 13.9451 309.793 14.2182 309.623 14.3802C309.168 14.8054 308.486 14.4823 307.386 14.5127ZM64.1166 14.3802C64.1034 14.3836 64.09 14.3869 64.0768 14.3901C63.9401 14.4236 63.8035 14.4518 63.6684 14.4761C63.8046 14.4801 63.9407 14.4843 64.0768 14.4891C64.336 14.4981 64.595 14.5089 64.8538 14.5226C64.661 14.4463 64.3932 14.4086 64.2111 14.3268C64.1795 14.3444 64.1473 14.3618 64.1166 14.3802ZM270.783 13.7929C271.272 13.8331 271.498 14.0332 271.612 14.2635C271.497 14.4334 271.255 14.5718 270.992 14.482C270.651 14.3606 270.308 14.1781 270.175 13.9857C270.062 13.8137 270.517 13.7727 270.783 13.7929ZM74.1902 12.4433C74.1672 12.5004 74.1367 12.5549 74.0828 12.6035C74.1756 12.6799 74.2267 12.7703 74.2439 12.8616C74.2439 13.1949 73.8273 13.4173 73.4864 13.6496C74.0447 13.9867 74.3189 14.2941 72.727 14.4109C72.6594 14.4164 72.6087 14.4323 72.5715 14.4544C72.8764 14.4444 73.1745 14.4395 73.4845 14.4316C74.9449 14.3709 75.0782 14.2588 74.5662 13.4894C74.4145 13.2465 74.3004 13.034 74.5847 12.8012C74.7316 12.7141 74.9075 12.6583 75.1107 12.6312C75.09 12.6104 75.0717 12.5895 75.057 12.5679C74.9758 12.5685 74.8944 12.5708 74.8125 12.5679C74.573 12.5612 74.3793 12.5068 74.1902 12.4433ZM61.5848 14.4366C60.3799 14.2657 59.1394 14.2843 57.8936 14.3881C57.9024 14.3956 57.9107 14.4033 57.9195 14.4109C58.1906 14.4165 58.4604 14.4082 58.7289 14.3703C59.681 14.412 60.634 14.4243 61.5848 14.4366ZM43.4621 13.7306C42.1935 14.066 40.6288 13.8763 39.7079 14.3298C40.9491 13.8791 42.4257 14.246 43.9232 14.3397C43.6527 14.1698 43.4477 13.9809 43.4621 13.7306ZM271.616 14.2695C271.615 14.2675 271.613 14.2655 271.612 14.2635C271.613 14.2622 271.615 14.261 271.616 14.2596C271.616 14.2629 271.616 14.2662 271.616 14.2695ZM303.954 11.6168C304.504 11.0701 305.11 10.6248 306.286 11.2727C306.475 11.384 306.78 11.3841 307.026 11.2727C307.033 11.276 307.039 11.2793 307.045 11.2826C308.074 11.637 308.13 12.0614 307.632 12.5214C307.55 12.5877 307.468 12.6539 307.386 12.7202C307.412 12.7693 307.439 12.8184 307.465 12.8675C307.759 13.5332 306.59 13.1914 306.039 13.2768C306.014 13.2851 305.989 13.2933 305.963 13.3015C305.94 13.3103 305.916 13.3174 305.887 13.3174C304.105 13.4895 302.891 14.5932 300.653 14.1479C300.35 14.0871 299.401 14.4108 298.453 14.1172C299.458 13.9653 299.819 13.1047 301.185 13.7425C301.469 13.874 301.696 13.601 301.924 13.4795C302.493 13.1555 303.024 12.7709 303.726 12.5481C304.674 12.2445 304.295 11.9508 303.954 11.6168ZM359.313 13.8542C359.297 13.851 359.281 13.8475 359.265 13.8443C359.287 13.8444 359.309 13.844 359.331 13.8443C359.325 13.8476 359.319 13.8509 359.313 13.8542ZM321.573 11.8086C321.706 11.9605 321.781 12.214 321.989 12.2545C325.061 12.8416 321.838 12.9733 321.686 13.3174C321.648 13.3882 321.193 13.4084 320.947 13.4488C320.953 13.4488 320.959 13.4488 320.965 13.4488C320.832 13.4995 320.7 13.5505 320.567 13.6011C320.514 13.5616 320.45 13.5216 320.384 13.4813C320.145 13.3359 319.865 13.1871 319.865 13.0445C319.884 12.012 318.765 12.4362 317.874 12.5679C317.097 12.2035 317.647 12.1029 318.254 11.9915C318.949 11.8614 319.667 11.8355 320.384 11.8256C320.782 11.8201 321.18 11.8194 321.573 11.8086ZM323.81 13.4597C323.81 13.4561 323.81 13.4525 323.81 13.4488C323.813 13.4483 323.816 13.4475 323.819 13.4469C323.816 13.4509 323.814 13.4557 323.81 13.4597ZM323.819 13.4469C324.305 12.8856 324.539 12.4387 325.707 12.6599C326.01 12.7206 326.56 12.7815 326.409 12.9535C325.917 13.5083 324.878 13.2478 323.819 13.4469ZM45.3382 13.0722C45.42 13.112 45.5122 13.1487 45.6068 13.1839C45.6123 13.181 45.62 13.179 45.6253 13.176C45.5311 13.1403 45.4338 13.106 45.3382 13.0722ZM361.115 10.7359C361.153 10.9484 361.209 11.1311 361.702 11.2223C362.745 11.4045 362.765 11.4343 361.969 11.7582C361.684 11.8796 361.4 12.0012 361.513 12.1833C361.608 12.3756 361.968 12.2746 362.234 12.2644C362.708 12.2441 363.144 12.2951 363.352 12.558C363.447 12.6694 363.883 12.751 363.504 12.913C363.296 12.9941 363.03 13.1955 362.802 13.0741C361.627 12.5077 360.488 12.6794 359.313 13.0741C359.066 13.1551 358.877 13.0847 358.763 12.9733C358.611 12.8418 358.554 12.6999 358.687 12.5481C359.066 12.1533 360.204 11.8903 359.331 11.2727C359.161 11.1513 360.412 11.1306 360.432 10.726C360.659 10.726 360.887 10.726 361.115 10.726C361.115 10.7293 361.115 10.7326 361.115 10.7359ZM152.043 11.682C150.887 11.8514 151.107 12.4723 152.534 13.0237C152.912 12.6901 152.344 12.5583 152.078 12.3662C151.636 12.0413 151.616 11.8131 152.043 11.682ZM144.796 12.3761C144.986 12.5379 145.591 12.5992 145.401 12.8319C145.249 13.0238 144.719 12.9533 144.359 12.9634C143.752 12.9937 143.582 12.8317 143.79 12.5383C144.131 12.4876 144.454 12.4267 144.796 12.3761ZM139.447 10.2603C139.542 9.7237 140.623 9.3281 141.571 9.49009C142.216 9.60146 142.386 9.82479 141.931 10.0981C141.135 10.5764 141.311 10.9077 142.079 11.1729C142.2 11.2094 142.322 11.246 142.444 11.2826C142.509 11.3001 142.574 11.3175 142.64 11.335C143.054 11.4655 143.162 11.6496 142.747 11.8798C142.278 12.1456 141.861 12.0525 141.458 11.9124C141.325 11.8643 141.192 11.8162 141.058 11.7681C140.856 11.7895 140.653 11.8109 140.451 11.8323C139.849 11.9068 139.267 12.0164 138.726 12.1833C138.044 13.2462 136.318 12.7808 135.009 12.9021C134.137 12.8616 133.396 12.7102 133.244 12.1635C134.117 11.7181 135.009 11.4648 136.393 11.5861C138.479 11.7785 139.257 11.3636 139.447 10.2603ZM261.357 10.7665C261.623 10.6654 261.946 10.8072 262.059 10.9286C262.419 11.3836 261.432 11.3132 261.091 11.6168C262.134 11.637 263.083 11.3638 264.05 11.4853C264.145 11.5054 264.239 11.5156 264.334 11.5357C264.239 11.556 264.163 11.5867 264.069 11.6069C264.069 11.6102 264.069 11.6135 264.069 11.6168C262.381 12.6697 260.143 12.9428 257.677 12.8922C258.246 12.6493 258.682 12.2745 259.592 12.3148C260.464 12.3553 260.579 12.1432 260.181 11.7789C259.423 11.0702 260.732 11.0196 261.357 10.7665ZM205.317 11.1027C206.288 11.7198 208.034 11.8975 209.051 11.4853C209.126 12.1939 207.797 12.7602 205.939 12.7805C204.839 12.7906 203.72 12.7305 202.544 12.7103C202.753 12.4471 203.152 12.4473 203.531 12.4473C204.479 12.4473 204.858 12.2038 204.668 11.7077C204.537 11.3968 204.741 11.1853 205.317 11.1027ZM16.09 12.4977C16.0564 12.4871 16.0231 12.4765 15.9899 12.4661C15.9874 12.4662 15.985 12.4669 15.9825 12.4671C15.9652 12.4654 15.948 12.4638 15.9307 12.4621C15.9834 12.4744 16.0371 12.4856 16.09 12.4977ZM232.794 7.82017C233.003 7.59743 233.497 7.64766 233.876 7.66791C234.559 7.69825 235.392 7.5673 235.81 8.02285C236.283 8.52916 235.469 10.0478 234.502 10.2099C233.63 10.3617 232.643 10.3305 231.694 10.371C231.24 10.3912 230.804 10.3807 230.35 10.3908C230.471 11.4446 231.888 11.4855 233.363 11.4754C233.477 11.5159 233.516 11.5459 233.478 11.5762C233.44 11.6066 233.401 11.6168 233.344 11.6168C233.338 11.6201 233.332 11.6234 233.326 11.6267C231.998 12.2138 230.292 12.2752 228.718 12.4473C228.149 12.508 227.162 12.2137 226.858 11.6771C226.63 11.2925 225.285 11.0188 226.612 10.5431C226.498 10.4925 226.365 10.4325 226.251 10.3819C225.796 10.22 224.924 10.2291 225.114 9.78373C225.342 9.1767 226.328 9.11555 227.257 9.06494C228.297 9.34259 229.839 9.18193 230.387 9.89446C230.625 9.56118 231.329 9.33361 231.315 8.94432C231.308 8.94432 231.302 8.94432 231.296 8.94432C231.22 8.77221 231.126 8.58946 231.05 8.41734C231.22 8.40723 231.391 8.397 231.542 8.37681C232.358 8.30595 232.339 8.29583 232.794 7.82017ZM79.7817 10.8367C78.8716 10.5129 78.2265 10.6145 77.3165 10.7764C77.1125 10.8132 76.9056 10.8348 76.6979 10.8476C76.7642 10.8729 76.8241 10.8991 76.8757 10.9286C77.0288 10.9286 77.1819 10.9286 77.335 10.9286C77.8089 10.9286 78.3959 10.8373 78.6426 11.1709C78.9081 11.5454 78.2261 11.5861 77.9036 11.7582C77.8278 11.7987 77.8855 11.9204 77.8666 12.0014C78.0065 12.1042 78.0126 12.1891 77.9592 12.2654C78.4848 12.2292 79.0201 12.226 79.5168 12.1329C79.9859 11.7499 80.5113 11.3874 80.8744 10.9771C80.4944 11.0056 80.1011 10.9487 79.7817 10.8367ZM252.177 9.66311C252.442 9.62262 252.709 9.56159 252.501 9.85492C252.216 10.2598 253.031 10.0877 253.316 10.199C253.524 10.3103 253.524 10.4219 253.316 10.5332C253.309 10.5365 253.303 10.5398 253.297 10.5431C253.05 11.3935 252.101 11.9201 250.584 12.1833C250.597 12.1833 250.61 12.1833 250.623 12.1833C249.58 12.2137 249.314 12.042 250.11 11.6069C250.356 11.4652 250.945 11.5455 250.926 11.1709C250.13 11.1709 248.839 11.6061 248.991 10.5836C249.029 10.3004 248.953 10.189 249.465 10.108C250.375 9.96634 251.267 9.80481 252.177 9.66311ZM68.795 9.54249C69.0378 9.63612 69.1906 9.7835 69.2173 10.0072C69.2739 10.4929 68.6098 10.685 67.8134 10.7052C67.4771 10.7118 67.1328 10.6964 66.7855 10.6795C67.3583 10.7898 67.8134 11.0225 68.0227 11.3736C68.0094 11.4609 68.0032 11.5472 68.0079 11.6306C68.8312 11.5545 69.5664 11.2308 70.4267 11.2559C70.787 10.7086 69.7405 10.1466 70.3564 9.60181C70.4319 9.53125 70.4309 9.5517 70.2415 9.58203C69.7562 9.66471 69.2718 9.6132 68.795 9.54249ZM151.297 8.27003C151.345 8.3178 151.385 8.3701 151.413 8.42723C151.793 9.13587 150.428 9.07542 149.802 9.3487C149.565 9.35459 149.349 9.39401 149.145 9.44559C149.283 9.42097 149.432 9.40944 149.593 9.41989C150.655 9.60213 151.529 9.31837 152.458 9.13613C153.425 8.95423 155.225 9.2274 155.605 9.69277C156.079 10.29 155.207 10.452 154.373 10.5836C154.108 10.6038 153.672 10.6042 153.671 10.7457C153.64 11.2161 153.292 11.442 152.601 11.5871C152.634 11.5839 152.669 11.579 152.704 11.5762C152.818 11.5762 152.931 11.5765 153.045 11.5664C155.321 11.3436 155.491 11.252 155.927 10.0675C155.547 9.32859 154.277 8.94372 153.215 8.84249C152.309 8.75444 151.743 8.55907 151.297 8.27003ZM244.344 9.98641C245.103 9.95604 245.539 10.23 245.672 10.635C245.728 10.797 245.52 11.0292 245.368 10.9988C244.345 10.7563 243.814 11.4544 242.885 11.3736C242.885 11.3703 242.885 11.367 242.885 11.3637C242.657 11.0701 243.358 10.9483 243.149 10.6142C242.846 10.1589 243.718 10.0168 244.344 9.98641ZM365.591 10.0072C366.312 9.97699 366.71 10.3004 367.108 10.5737C367.905 10.8774 368.891 10.8172 369.649 10.6755C370.408 10.5338 370.901 10.6751 371.489 10.7764C371.583 11.2202 370.982 11.071 370.564 11.0799C369.337 11.0901 368.127 11.1112 366.918 11.333C366.064 11.4946 364.87 10.9485 364.927 10.4729C364.965 10.2602 365.25 10.0173 365.591 10.0072ZM205.317 11.1027C205.316 11.102 205.314 11.1013 205.313 11.1007C205.32 11.1007 205.327 11.1007 205.333 11.1007C205.328 11.1014 205.322 11.1019 205.317 11.1027ZM206.261 9.74319C206.565 9.64197 207.134 9.53108 207.248 9.77384C207.305 9.90541 207.665 10.2094 207.23 10.3107C206.452 10.4929 206.28 11.0696 205.313 11.0898C205.32 11.0898 205.327 11.0898 205.333 11.0898C205.327 11.0934 205.32 11.0971 205.313 11.1007C205.162 11.0602 205.029 11.0094 204.878 10.9791C204.195 10.8778 203.018 11.0999 203.018 10.5025C203.019 9.76447 204.213 10.2697 204.839 10.1792C205.427 10.0982 205.787 9.89505 206.261 9.74319ZM65.1538 10.6706C64.7521 10.7032 64.3857 10.7746 64.0768 10.9134C63.9875 10.9535 63.9031 10.9992 63.824 11.0512C63.9072 11.015 63.9916 10.9811 64.0768 10.9494C64.4271 10.819 64.792 10.7266 65.1538 10.6706ZM48.9776 10.6271C48.595 10.7861 48.1737 10.8543 47.7256 10.894C47.875 10.9157 48.0338 10.9286 48.2034 10.9286C48.469 10.9388 48.7542 11.0597 48.9628 10.8673C49.0445 10.78 49.0231 10.7025 48.9776 10.6271ZM215.138 3.49657C215.934 3.61803 215.65 3.97252 215.744 4.2559C215.744 4.30652 215.744 4.34765 215.725 4.39827C215.497 4.74224 214.266 4.78306 214.759 5.32963C215.347 5.57255 216.125 5.66397 216.485 6.03853C216.466 6.5241 217.318 6.73674 217.622 7.12116C217.616 7.12478 217.61 7.12841 217.604 7.13203C216.693 7.20289 215.745 7.1017 214.911 7.42568C214.607 7.54711 213.98 7.63754 213.847 7.2833C213.639 6.67617 212.786 6.80765 212.066 6.7672C211.933 6.81782 211.704 6.86848 211.629 6.80774C211.475 6.7032 211.312 6.60213 211.147 6.50223C211.157 6.69568 210.865 6.93454 210.282 7.27342C210.301 7.28001 210.32 7.2866 210.34 7.29319C208.671 7.45518 209.088 8.03305 209.449 8.61014C210.15 8.64036 210.396 8.36634 210.604 8.09305C210.851 7.74897 211.383 7.64771 211.971 7.70844C212.71 7.7895 212.54 8.05309 212.294 8.32638C212.218 8.41751 212.256 8.62031 212.369 8.65068C213.658 9.02512 213.375 9.36915 213.071 10.1179C212.616 11.2619 211.193 10.6855 210.321 10.9385C209.98 11.0397 210.036 10.7261 210.017 10.5539C209.998 9.97686 210.643 9.19715 208.671 9.12624C208.538 9.12624 208.423 8.95439 208.31 8.86325C208.082 8.6709 208.746 8.29598 207.799 8.24531C207.002 8.20481 206.224 8.28579 205.902 8.67045C205.257 9.46015 204.536 9.24793 203.644 8.82271C203.018 8.51898 202.393 8.49877 201.748 8.86325C201.255 9.13647 200.648 9.39971 199.909 9.46042C199.378 9.50092 198.714 9.64231 198.392 9.28839C198.031 8.91385 198.581 8.69093 199.036 8.44799C199.624 8.13416 200.421 8.23551 201.085 8.10392C201.917 7.9424 202.917 8.06191 203.581 7.6511C203.11 7.54175 202.485 7.42993 203.34 7.1518C203.701 7.03031 204.196 6.95901 204.613 6.95901C206.32 6.93876 207.969 6.91864 208.425 5.76466C208.463 5.69397 208.804 5.66391 208.993 5.61338C209.315 5.67415 209.486 5.84602 209.808 5.91692C210.058 5.97054 210.272 6.0227 210.451 6.07412C210.192 5.90528 209.955 5.72883 209.771 5.53231C210.947 5.41081 211.724 4.86367 212.899 4.71169C213.43 4.64085 213.658 4.32748 213.507 4.0542C213.298 3.69985 213.792 3.66896 214.114 3.52722C214.455 3.5171 214.797 3.50669 215.138 3.49657ZM200.629 10.1288C201.141 10.2401 201.881 10.2195 202.109 10.5737C202.109 10.577 202.109 10.5803 202.109 10.5836C202.109 10.8467 201.787 10.9583 201.464 10.9079C200.934 10.8269 200.383 10.6955 199.966 10.5134C199.871 10.4729 200.231 10.0478 200.629 10.1288ZM13.2525 10.7586C13.2743 10.7711 13.2977 10.7828 13.3174 10.7962C13.326 10.7941 13.3345 10.7921 13.3433 10.7902C13.3134 10.7793 13.2826 10.7692 13.2525 10.7586ZM60.4754 8.73076C59.823 8.4891 59.451 8.72734 59.0641 8.9463C60.1775 9.03637 59.7411 9.60018 59.792 10.027C59.7684 10.0926 59.7412 10.1584 59.7105 10.2237C59.7861 10.3978 59.4521 10.6217 59.5271 10.7952C59.6414 10.7505 59.7561 10.7044 59.8679 10.6548C60.0851 10.6325 60.2833 10.633 60.4587 10.6617C60.4482 10.4008 60.5664 10.1378 60.7014 9.88557C60.91 9.46037 61.2339 9.01425 60.4754 8.73076ZM11.9783 10.4709C12.27 10.5168 12.5604 10.5643 12.8377 10.6291C12.5604 10.5522 12.2768 10.495 11.9783 10.4709ZM160.903 10.0546C160.388 10.1324 160.06 10.2847 159.853 10.5737C160.119 10.3288 160.43 10.1648 160.903 10.0546ZM148.459 9.64828C148.221 9.71854 147.986 9.77379 147.735 9.77384C147.99 9.79925 148.219 9.73109 148.459 9.64828ZM246.887 7.39503C247.949 6.89928 248.214 7.85088 249.352 7.67878C249.358 7.68208 249.364 7.68537 249.371 7.68867C248.84 8.02235 248.48 7.98176 248.158 8.01198C247.911 8.03222 247.606 7.93134 247.341 8.1237C247.872 8.1642 248.365 8.20481 248.821 8.24531C247.626 9.1158 245.616 9.16654 244.042 9.65223C243.511 9.81422 243.094 9.7027 242.714 9.49009C241.463 8.82197 240.134 8.76199 238.541 9.32893C238.276 9.4302 238.048 9.64224 237.745 9.42977C237.48 9.23741 237.84 9.06514 238.125 9.01452C239.091 8.83231 239.774 8.55908 239.964 7.98232C240.04 7.73941 240.532 7.51695 240.949 7.59771C241.253 7.65846 241.615 7.96199 241.596 8.15435C241.501 9.09563 242.543 8.73103 243.149 8.5083C244.344 8.07296 245.787 7.92149 246.887 7.39503ZM51.4372 8.30364C50.1487 8.4026 49.7545 8.7273 49.3943 9.64729C49.5397 9.65009 49.6857 9.65424 49.8351 9.66311C50.9786 9.75143 51.546 9.61015 51.4298 9.16381C51.1615 9.01535 50.9349 8.83843 50.7649 8.62003C50.986 8.46943 51.2109 8.36846 51.4372 8.30364ZM67.7856 9.4011C67.2807 9.35131 66.794 9.36902 66.3354 9.60181C66.7146 9.62184 67.1322 9.39912 67.6819 9.39912C67.7169 9.39913 67.7514 9.40064 67.7856 9.4011ZM193.234 8.41734C193.745 8.42757 194.162 8.53932 194.295 8.78217C194.389 8.96416 193.991 9.0044 193.745 9.01452C193.233 9.05499 192.891 8.85307 192.739 8.65068C192.625 8.48869 193.006 8.43783 193.252 8.40746C193.246 8.41075 193.24 8.41405 193.234 8.41734ZM384.46 8.38669C384.025 9.20665 383.001 8.93376 382.034 8.75152C382.414 8.49848 382.641 8.14416 383.418 8.16424C383.759 8.23504 384.12 8.31587 384.46 8.38669ZM11.619 6.86805C11.3915 6.77737 11.0891 6.8689 11.0134 7.05096C10.8997 7.28373 10.8619 7.50655 11.1652 7.72921C11.5256 7.99206 12.226 8.07331 12.3969 8.42723C12.4209 8.47643 12.425 8.52309 12.4209 8.56763C13.4379 8.56202 14.4707 8.53452 15.3195 8.9374C15.3331 8.92814 15.3475 8.92356 15.3565 8.92356C15.3565 8.92685 15.3565 8.93015 15.3565 8.93345C15.509 8.87618 15.7779 8.89917 16.0455 8.92059C16.2892 8.90322 16.5347 8.87928 16.7789 8.86226C16.826 8.8236 16.8509 8.76963 16.8382 8.68924C16.6686 8.6833 16.4909 8.68252 16.3048 8.69121C15.4325 8.58998 14.5592 8.45817 13.7248 8.27596C12.511 8.01273 12.3977 7.74886 13.2322 7.12116C13.2457 7.11909 13.2593 7.11716 13.2729 7.11522C12.7625 6.9888 12.1086 7.04484 11.619 6.86805ZM241.936 3.01112C242.183 2.59602 242.828 2.79831 243.435 2.80844C241.955 4.20559 239.641 4.70172 236.891 4.87384C236.208 4.91436 235.337 5.29935 235.508 5.66381C235.678 6.01835 235.64 6.84757 237.195 6.49333C238.427 6.22019 239.603 6.4028 240.797 6.55463C240.793 6.56122 240.789 6.56781 240.784 6.5744C240.786 6.5744 240.788 6.5744 240.79 6.5744C240.786 6.57771 240.783 6.58202 240.779 6.58528C240.16 6.67459 239.54 6.7639 238.921 6.85322C237.065 7.13039 235.208 7.40748 233.287 7.44545C232.055 7.47585 231.165 7.59746 230.69 8.22455C230.596 8.64969 230.197 8.85276 229.362 8.8326C228.49 8.82248 228.243 8.52897 228.11 8.14446C227.997 7.7902 227.769 7.43571 228.357 7.13203C228.698 7.13203 229.021 7.12191 229.362 7.13203C229.95 7.16245 230.613 7.31364 230.974 6.91946C231.239 6.60561 231.202 6.34177 230.633 6.0583C230.178 5.83567 229.799 5.36037 230.272 5.10717C230.898 4.78325 231.713 5.05596 232.396 5.25844C232.813 5.1876 233.287 5.20752 233.685 5.09629C234.861 4.80269 235.848 4.51905 236.095 3.66861C236.21 3.2743 237.574 3.29449 238.484 3.35519C238.731 3.73991 237.327 3.65908 237.839 4.02355C238.257 4.3271 238.977 4.11418 239.375 4.00279C240.304 3.73957 241.538 3.68938 241.936 3.01112ZM265.814 8.74164C265.82 8.74493 265.826 8.74823 265.832 8.75152C265.826 8.75482 265.82 8.75812 265.814 8.76141C265.802 8.75357 265.789 8.74623 265.776 8.73867C265.789 8.73911 265.801 8.74126 265.814 8.74164ZM262.078 8.46777C262.04 8.17437 262.59 8.15416 262.932 8.20477C263.902 8.34411 265.018 8.26846 265.776 8.73867C264.803 8.70399 263.848 8.49087 262.856 8.65068C262.514 8.7013 262.097 8.6905 262.078 8.46777ZM53.1708 8.22059C53.0473 8.2457 52.9124 8.25543 52.767 8.26014C52.9361 8.28596 53.1054 8.31909 53.2745 8.35604C53.2335 8.31275 53.1982 8.26792 53.1708 8.22059ZM196.495 7.04008C196.893 7.06036 197.31 7.1923 197.121 7.4148C196.932 7.63745 197.102 8.04286 196.477 8.06339C195.927 8.07351 195.679 7.75911 195.641 7.49587C195.604 7.24287 195.926 7.06033 196.495 7.04008ZM301.279 6.40237C302.947 7.20174 305.051 7.05036 307.041 7.13104C306.864 7.84276 305.899 8.12298 304.408 7.90124C302.265 7.57737 301.639 7.59772 299.894 8.06339C300.406 7.51668 300.255 6.83771 301.279 6.40237ZM257.336 5.12694C257.754 5.15711 258.227 4.89468 258.568 5.14771C258.795 5.31969 258.38 5.45098 258.209 5.59262C257.507 6.13929 258.095 6.3216 259.024 6.39248C259.517 6.43296 260.01 6.39265 260.465 6.2511C261.128 5.93724 261.736 5.84628 262.115 6.41324C262.103 6.41324 262.09 6.41324 262.078 6.41324C261.945 6.46381 261.831 6.52383 261.698 6.5744C260.036 7.21736 258.154 7.08199 256.307 7.09882C255.857 7.10293 255.408 7.11609 254.966 7.1518C254.283 7.21255 252.651 6.65611 253.125 7.81028C253.199 7.98216 251.894 8.03247 251.325 7.82017C251.002 7.69868 250.812 7.4551 250.167 7.46522C251.267 6.82778 252.632 6.86879 253.751 6.87892C255.11 6.87892 255.837 6.58213 256.307 6.12702C256.493 5.94706 256.639 5.74234 256.768 5.52143C256.882 5.32934 256.995 5.19775 257.336 5.12694ZM287.092 4.9648C288.173 5.2179 289.332 4.89456 290.432 5.10717C290.811 5.02622 291.19 4.96501 291.569 5.12694C291.021 5.56082 290.076 5.86393 289.844 6.4172C291.242 6.7463 292.695 6.72638 294.149 6.6357C294.413 6.71666 294.394 6.82777 294.28 6.94912C294.272 6.95296 294.261 6.95467 294.252 6.95802C295.24 6.95799 296.211 6.95872 297.182 6.94912C295.837 7.64708 294.303 7.64781 293.865 6.9511C291.348 7.40091 288.623 6.74784 286.125 7.33373C285.765 7.41472 285.423 7.48591 285.442 7.1518C285.518 7.03031 285.689 6.74699 285.424 6.80774C283.432 7.28341 281.308 6.74707 279.317 7.10138C278.691 6.61541 278.54 6.23006 280.019 6.19968C281.442 6.40215 282.883 6.42285 284.344 6.39248C284.59 6.23067 285.043 6.08883 285.044 5.91692C285.025 5.12735 286.087 5.07613 287.092 4.9648ZM168.942 7.21706C168.171 7.15059 167.57 7.2064 167.106 7.37723C167.622 7.22268 168.265 7.20729 168.942 7.21706ZM111.982 6.25011C111.596 6.54689 111.3 6.87511 111.397 7.02031C111.511 7.19226 111.776 7.24238 112.06 7.21212C112.455 7.16822 112.85 7.10935 113.158 7.11423C112.879 7.08731 112.55 6.98129 112.306 6.80774C112.049 6.61821 111.949 6.423 111.982 6.25011ZM307.045 7.13203C307.044 7.1317 307.042 7.13137 307.041 7.13104C307.042 7.12784 307.044 7.12438 307.045 7.12116C307.045 7.12478 307.045 7.12841 307.045 7.13203ZM308.03 6.40237C308.599 6.17963 308.921 6.27146 308.751 6.62582C308.523 7.08075 307.765 7.11102 307.026 7.12116C306.685 6.60502 307.802 6.67586 308.03 6.39248C308.03 6.39578 308.03 6.39907 308.03 6.40237ZM147.413 3.96225C148.114 3.24387 149.025 3.20346 149.859 3.8614C150.144 4.084 150.504 4.04333 150.884 4.04333C150.89 4.04333 150.896 4.04333 150.902 4.04333C150.921 4.6305 151.585 5.07628 152.097 5.55208C152.305 5.74439 152.837 5.93703 152.458 6.17991C152.135 6.39252 151.604 6.45319 151.073 6.35194C150.485 6.23048 149.878 6.20986 149.252 6.24022C148.702 6.36166 148.38 6.69606 147.717 6.72666C146.067 6.76716 144.51 7.33408 142.803 6.93923C142.727 6.82791 142.632 6.71638 142.557 6.60505C143.448 6.36213 144.339 6.10919 145.25 5.87638C145.856 5.7144 146.122 5.47142 145.8 5.15759C145.534 4.89436 145.269 4.48931 144.435 4.82341C144.169 4.93467 143.903 4.94492 143.751 4.77299C143.562 4.51988 143.904 4.46918 144.264 4.43881C144.814 4.38817 145.46 4.23573 145.896 4.33697C146.768 4.52912 147.09 4.30641 147.413 3.96225ZM76.6979 6.40435C76.8063 6.52806 76.8435 6.6504 76.7572 6.77412C77.1729 6.84854 77.6052 6.89194 78.074 6.62582C77.6342 6.49478 77.1623 6.44718 76.6979 6.40435ZM246.772 3.45604C247.227 3.37514 247.55 3.61841 247.891 3.59841C248.706 3.53766 249.599 3.34558 249.03 4.13527C248.974 4.22711 249.277 4.6711 250.015 4.58019C250.281 4.54982 250.585 4.58067 250.85 4.56042C251.4 4.52999 252.083 4.38774 252.425 4.68104C252.823 5.02513 252.102 5.04639 251.723 5.06663C251.495 5.06663 251.248 4.86371 251.039 4.87384C250.262 4.91431 249.371 4.85347 248.821 5.18725C248.271 5.51115 247.569 5.56216 246.906 5.68358C246.886 5.68358 246.866 5.68265 246.846 5.68259C245.962 6.13351 245.115 5.79382 244.268 5.64305C243.813 5.56195 243.131 5.36046 243.112 5.78542C243.074 6.75389 241.906 6.60543 240.79 6.5744C241.359 6.11453 240.957 5.13749 241.936 5.15759C242.885 5.17785 243.985 5.25904 245.009 5.36028C245.388 5.40075 245.767 5.44119 246.146 5.49177C246.152 5.49177 246.159 5.49177 246.165 5.49177C246.563 5.36022 246.582 5.35993 246.374 5.10717C246.279 5.00593 246.28 4.91485 246.431 4.8946C248.309 4.60099 247.265 4.09401 246.772 3.61818C246.735 3.57764 246.772 3.50655 246.772 3.45604ZM103.305 5.97327C102.604 6.281 101.77 6.43104 100.625 6.22045C101.516 6.62519 102.293 6.60503 103.033 6.22045C103.158 6.15365 103.228 6.06271 103.305 5.97327ZM303.611 4.73245C304.275 4.76282 304.921 4.74273 305.547 4.8946C304.484 5.69401 302.285 5.46118 301.279 6.28076C301.286 6.28438 301.292 6.28801 301.298 6.29163C300.388 6.25111 300.084 5.8454 299.629 5.52143C300.862 5.12667 302.037 4.66174 303.611 4.73245ZM121.489 5.21593C121.232 5.25002 120.964 5.27319 120.728 5.29898C119.533 5.42045 118.339 5.54257 117.144 5.65392C116.534 5.66768 115.919 5.63289 115.303 5.60943C117.439 5.86979 119.499 5.83615 121.489 5.21593ZM114.416 5.59163C113.966 5.59171 113.516 5.61027 113.066 5.6737C113.008 5.68226 112.942 5.70131 112.869 5.72807C112.987 5.71032 113.116 5.6982 113.255 5.69347C113.656 5.67758 114.047 5.65425 114.416 5.59163ZM195.395 2.93993C196.097 2.72747 196.761 2.99064 197.443 3.02101C198.107 3.06157 198.049 3.36535 197.651 3.6083C197.31 3.91177 196.552 3.83132 195.851 4.15505C197.045 4.18531 198.012 3.90195 198.884 4.20547C198.891 4.20547 198.897 4.20547 198.903 4.20547C199.51 4.26622 199.852 3.86129 200.611 3.9929C199.795 4.36748 200.743 5.21848 198.942 5.36028C197.804 5.4514 196.779 5.30882 195.717 5.26833C194.563 5.2303 193.387 5.29526 192.23 5.39861C191.847 5.43283 191.466 5.47126 191.089 5.51155C189.496 5.67344 188.074 5.58219 186.727 5.09629C186.159 4.89381 185.854 4.60029 185.797 4.28655C185.741 3.97307 186.48 4.05352 186.822 3.94248C187.334 3.78052 188.15 3.50724 187.79 4.29643C187.695 4.48879 187.904 5.26838 189.079 5.3494C190.615 5.46074 191.146 4.91453 191.487 4.26677C191.696 4.2364 192.094 4.22544 192.113 4.17482C192.143 4.08848 192.182 4.00996 192.23 3.93836C192.743 3.17914 194.251 3.19895 195.395 2.93993ZM225.588 4.24601C225.702 4.42825 225.93 4.54982 226.29 4.58019C225.721 5.15728 224.696 5.33991 223.615 5.49177C223.767 4.84382 224.298 4.37763 225.588 4.24601ZM202.659 3.53711C203.285 3.33502 203.967 3.76986 204.593 3.49657C204.991 3.8408 203.93 3.83135 203.987 3.93259C204.461 4.45821 205.618 3.40627 205.637 4.35773C204.158 4.55009 202.867 5.06628 200.857 5.20802C202.279 4.73217 202.659 4.18507 202.659 3.53711ZM259.252 3.98301C259.631 3.98301 260.01 4.02306 260.389 4.04333C260.616 4.04333 260.845 4.04408 261.072 4.0542C260.01 4.39829 258.625 4.33774 257.677 4.81352C257.677 4.39843 258.398 4.00326 259.252 3.98301ZM233.706 2.79855C233.877 2.93018 234.311 3.14298 233.837 3.2138C232.093 3.48728 230.993 4.27698 229.514 4.77299C229.173 4.46934 229.685 4.28674 229.666 4.06409C230.479 3.14597 231.931 2.83077 233.706 2.79855ZM139.277 4.10462C139.267 4.10347 139.258 4.10185 139.249 4.10067C139.258 4.0984 139.268 4.09704 139.277 4.09474C139.277 4.09803 139.277 4.10133 139.277 4.10462ZM208.008 2.80844C209.708 2.35486 211.39 2.98517 213.09 2.80942C213.09 2.86644 213.09 2.92346 213.09 2.98047C212.066 2.89948 211.098 3.07179 210.112 3.18315C209.865 3.58804 208.575 3.4974 208.632 4.0542C208.556 4.06428 208.461 4.07378 208.386 4.08386C207.88 4.08386 207.374 4.08386 206.869 4.08386C206.888 3.5171 207.629 3.21333 208.008 2.80844ZM176.259 2.38329C177.321 2.38345 177.018 2.93027 177.056 3.13273C177.188 3.77029 176.088 3.67957 175.329 3.76056C175.329 3.76385 175.329 3.76715 175.329 3.77044C174.723 3.83118 174.589 3.75004 174.646 3.39573C174.741 2.81864 174.932 2.37317 176.259 2.38329ZM17.4235 2.84007C17.6459 3.16334 17.5902 3.35557 17.1642 3.56479C17.7095 3.42295 18.1584 3.43981 18.4643 3.70025C19.195 3.52742 20.2995 3.74812 20.5905 3.1525C20.4769 3.03139 20.2492 3.15252 20.1164 3.08231C19.2286 2.98009 18.3406 2.85256 17.4235 2.84007ZM240.797 2.62652C240.209 3.29438 239.147 3.39572 237.308 2.97058C238.37 2.59609 239.678 2.88937 240.797 2.62652ZM213.108 2.80844C213.096 2.80844 213.084 2.80844 213.071 2.80844C213.078 2.80115 213.088 2.79475 213.096 2.78767C213.099 2.79449 213.105 2.80116 213.108 2.80844ZM213.697 2.06988C213.843 2.45128 213.319 2.57846 213.096 2.78767C212.886 2.40609 212.04 2.7428 211.686 2.47425C212.255 2.13009 213.034 2.23186 213.697 2.06988ZM8.60748 2.26663C8.61304 2.2656 8.61864 2.26471 8.62415 2.26366C8.61982 2.26303 8.61552 2.26231 8.61119 2.26168C8.6098 2.26331 8.60893 2.26502 8.60748 2.26663ZM240.723 1.58343C241.595 1.83623 242.563 1.58316 243.568 1.76536C242.487 2.37281 241.12 1.66463 240.077 2.03923C239.698 1.6444 240.306 1.6543 240.723 1.58343Z" fill="black"/>
</svg>
