<svg width="125" height="30" viewBox="0 0 125 30" fill="#BF360C" xmlns="http://www.w3.org/2000/svg">
<g clip-path="url(#clip0_2002_4)">
<path d="M30.084 24.4829C30.289 24.469 30.467 24.4818 30.625 24.5115C31.933 24.6053 32.493 25.0895 32.335 25.9632C32.963 26.1358 33.601 26.1481 34.253 26.1134C34.33 26.096 34.41 26.0725 34.485 26.0576C35.989 25.7328 37.494 26.1839 39.003 26.1096C39.009 26.1095 39.014 26.1094 39.019 26.1093C41.224 25.9548 43.399 25.7192 45.571 25.358C45.919 25.3058 47.089 24.8596 46.454 25.9305C43.975 26.205 41.494 26.3983 38.994 26.2818L38.992 26.2807C37.598 26.2985 36.204 26.3163 34.809 26.3341C33.806 26.5821 32.804 26.8302 31.801 27.0783C31.76 27.0814 31.718 27.0821 31.677 27.085C30.661 27.2435 29.669 27.4005 28.647 27.4898C28.493 27.5032 28.338 27.5151 28.182 27.5253C27.988 27.5755 27.797 27.5827 27.614 27.5557C27.159 27.5713 26.694 27.5715 26.216 27.5469C23.424 27.3895 20.487 27.2574 17.639 28.0453C16.514 28.3641 15.132 28.0907 13.87 28.0777C13.872 28.0865 13.877 28.0944 13.877 28.1012C12.569 28.8499 11.065 28.4502 9.644 28.5907C8.403 29.0389 7.23199 28.5886 6.03799 28.4256C5.62799 28.2373 5.178 28.245 4.728 28.2646C4.718 28.2665 4.708 28.2668 4.698 28.2685C4.649 28.3127 4.60901 28.3635 4.57001 28.4057C4.42801 28.5576 4.269 28.5717 4.064 28.4834C3.884 28.475 3.705 28.4665 3.526 28.4581C3.417 28.4508 3.309 28.4452 3.2 28.4381C1.604 28.2302 0.00999534 28.0028 -1.561 28.5231C-1.618 28.5326 -1.67499 28.5416 -1.73199 28.552C-3.01399 29.1507 -4.267 28.9662 -5.679 28.7957C-7.469 28.5858 -9.265 28.1566 -11.093 28.2929C-13.415 28.4495 -15.71 28.4564 -18.021 28.348C-17.854 27.965 -17.462 27.8885 -17.026 27.9152C-16.401 27.9615 -15.91 27.8377 -15.423 27.4491C-14.707 26.8721 -13.682 27.2566 -12.841 27.1725C-10.303 26.9429 -7.69799 27.2192 -5.14799 26.8282C-5.13799 26.8238 -5.128 26.8196 -5.118 26.8153C-4.842 26.1377 -3.614 29.5222 -3 29.5C-0.71 29.3901 1.14099 26.311 3.42799 26.007C3.43099 26.003 3.435 25.9997 3.438 25.9956C5.173 25.55 6.8 25.4863 8.625 26.0065C9.954 26.3858 11.606 26.1491 13.101 26.0649C13.971 26.0148 14.829 25.988 15.687 26.0648C15.675 26.077 15.66 26.0876 15.648 26.0992C15.665 26.0914 15.683 26.0826 15.701 26.0758C15.885 26.0725 16.055 26.0582 16.238 26.0437C16.363 26.0227 16.487 26.0018 16.612 25.9808C17.484 25.8194 18.351 25.5727 19.269 25.7478C19.277 25.7507 19.286 25.7524 19.293 25.7552C19.295 25.7505 19.295 25.7455 19.296 25.7406C20.444 25.4299 21.628 25.5555 22.795 25.5004C23.985 25.4446 25.176 25.4573 26.367 25.413C27.344 25.3734 27.368 25.3297 28.598 24.7619C28.647 24.7391 28.699 24.7156 28.752 24.6911C29.126 24.5234 29.635 24.5485 30.084 24.4829ZM50.716 0.989669C51.162 -0.0772122 52.148 -0.152562 53.142 0.163612C54.004 0.436129 55.129 0.819739 54.438 1.93765C54.3 2.16456 54.31 2.4145 54.363 2.66551C54.383 2.74911 54.404 2.83271 54.425 2.91631C54.529 2.95907 54.633 3.00182 54.737 3.04458C55.469 3.30667 56.251 3.31693 57.078 3.35255C60.058 3.46057 63.052 3.53397 65.927 4.24272C66.493 4.38154 67.059 4.53175 67.486 4.87729C67.488 4.8753 67.49 4.87355 67.493 4.87154C68.809 5.1568 69.48 6.06542 70.354 6.78407C70.361 6.78557 70.368 6.78794 70.374 6.78934C70.726 7.00169 71.079 7.20254 71.445 7.41464C71.448 7.41866 71.454 7.42176 71.457 7.42568C73.708 7.38549 75.958 7.3453 78.209 7.30511C78.239 7.30054 78.27 7.29704 78.3 7.29225C78.659 7.09007 79.066 7.07143 79.489 7.12145C79.517 7.12264 79.546 7.12212 79.575 7.12328C81.247 6.97849 82.909 6.97996 84.584 7.02596C84.624 7.02232 84.663 7.02092 84.702 7.01712C87.183 7.39924 89.671 7.53125 92.179 7.39444C92.719 7.36498 93.26 7.32307 93.802 7.26851C94.281 7.2255 94.819 7.25096 95.258 7.46181C95.21 7.48424 95.161 7.50354 95.112 7.52178C95.122 7.52122 95.133 7.52186 95.143 7.52122C95.176 7.50526 95.21 7.4893 95.243 7.47333C97.009 8.07437 98.966 7.93682 100.8 8.24796C100.797 8.2446 100.795 8.24139 100.793 8.23797C102.141 8.09885 103.396 8.44477 104.693 8.65192C104.704 8.65618 104.716 8.66059 104.727 8.66481C106.76 8.94873 108.818 9.03922 110.872 8.89924C111.525 8.85304 112.164 8.87562 112.75 9.12999C112.724 9.13371 112.697 9.13566 112.671 9.13928C112.697 9.13989 112.724 9.14056 112.75 9.14124C113.512 9.51918 114.301 9.68969 115.211 9.42007C115.666 9.2874 116.179 9.26564 116.642 9.47662C116.659 9.47605 116.676 9.47489 116.693 9.47458C118.499 8.90107 119.496 10.231 120.897 10.586C120.97 10.6078 121.017 10.7558 121.048 10.8589C121.553 12.3009 123.725 13.5058 125.875 13.5134C126.089 13.3024 126.199 12.9781 126.634 12.9702C127.303 12.9582 127.672 12.6993 127.934 12.3464C127.055 12.2371 126.068 12.3629 125.549 11.5624C124.445 11.5706 126.917 10.7632 126.634 9.59364C126.552 9.23244 135.34 4.15381 131 6C137.847 3.3651 140.023 4.4655 131.091 7.39444C132.871 6.22264 127.383 7.68294 129.661 7.5156C131.083 7.4096 132.461 7.29288 133.82 6.91163C135.352 6.49281 136.947 6.33698 138.565 6.66496L138.564 6.66611C138.569 6.66515 138.575 6.66566 138.58 6.6647C140.106 6.74109 141.536 7.01553 142.798 7.71852C142.884 7.76347 142.971 7.80841 143.057 7.85335C143.655 8.18491 144.215 8.60286 145.075 8.34591C145.089 8.34253 145.104 8.33939 145.119 8.33613C145.104 8.33488 145.089 8.33604 145.075 8.33467C146.04 7.90283 147.115 7.84918 148.175 7.79571C148.174 7.79924 148.175 7.80248 148.175 7.80583C149.487 7.58752 150.8 7.37017 152.112 7.15186C152.117 7.14308 152.124 7.1349 152.128 7.12569C153.766 6.94675 154.457 5.67972 156.027 5.01823C155.707 6.58984 153.719 7.51206 154.023 9.06111C154.346 9.26261 154.338 9.61943 154.705 9.83169C155.351 10.2232 155.42 10.8103 155.081 11.3691C154.757 11.9044 154.18 12.1678 153.393 12.0324C153.175 12.0018 152.942 12.0175 152.741 12.1363C152.422 12.165 152.235 12.306 152.181 12.5601C152.181 12.568 152.182 12.5759 152.182 12.5837C151.121 13.3969 149.678 13.1125 148.431 13.2614C147.808 13.3301 146.922 13.3222 146.178 13.1858C146.173 13.1865 146.168 13.1865 146.163 13.1872C146.173 13.1903 146.183 13.1937 146.193 13.1968C143.878 13.7448 141.701 14.6824 139.115 13.8304C137.872 13.415 136.398 13.8791 135.082 14.179C134.025 14.4052 132.985 14.7119 131.944 14.9953C131.38 15.1436 130.817 15.349 130.245 15.0369C130.24 15.0332 130.235 15.0296 130.231 15.0259C130.13 15.0138 130.029 15.0018 129.928 14.9897C128.412 14.8642 127.409 13.9715 125.875 13.5134C125.569 13.4267 124.448 14.9448 124.339 15.3729C124.027 16.5872 122.894 16.6189 121.702 16.5941C121.164 16.5807 120.595 16.4757 120.091 16.7151C119.042 17.3672 116.772 17.1544 115.26 16.2716C115.214 16.103 115.148 15.9594 115.065 15.8365C114.525 15.7273 113.985 15.6181 113.446 15.5089C112.877 16.1869 113.774 16.0679 114.097 16.2463C114.346 16.38 114.782 16.3492 114.644 16.7314C114.561 16.9977 114.375 17.1507 113.998 17.2265C113.246 17.3781 112.549 17.3908 111.917 17.0106C111.242 16.6081 110.454 16.4496 109.626 16.4183C110.885 16.0461 110.249 15.6083 109.737 15.177C109.726 15.1718 109.716 15.167 109.705 15.1618C109.104 15.1726 108.503 15.1485 107.917 15.0307C107.855 15.0841 107.796 15.1431 107.745 15.2081C107.344 15.4916 106.894 15.5459 106.384 15.4629C106.25 15.4024 106.114 15.3493 105.978 15.3004C105.719 15.3827 105.415 15.3671 105.132 15.3582C104.549 15.3397 103.966 15.3464 103.384 15.3568C103.687 15.4173 103.986 15.5039 104.28 15.6265C104.565 15.6603 104.85 15.6942 105.136 15.7281C105.995 15.8218 106.861 15.912 107.704 16.1647C107.389 16.4237 107.052 16.246 106.748 16.3089C104.062 16.4029 101.492 15.6887 98.805 15.7366C98.239 15.7467 98.321 15.5257 98.651 15.2895C98.657 15.2869 98.661 15.2838 98.667 15.2813C98.677 15.0862 98.687 14.8911 98.697 14.696C98.689 14.6862 98.678 14.6772 98.67 14.6672C98.679 14.667 98.689 14.6669 98.698 14.6667C98.292 14.6624 97.884 14.6121 97.478 14.6424C95.732 14.7819 94.01 14.7391 92.307 14.5383C91.476 14.4404 90.65 14.3049 89.827 14.1346C89.814 14.1305 89.799 14.1276 89.785 14.1241C89.794 14.1278 89.804 14.131 89.813 14.1348C88.869 14.1517 88.31 14.2067 88.044 14.3891C88.262 14.5744 88.48 14.7872 88.696 15.0297C90.139 16.1556 90.126 16.271 88.266 17.0528C87.661 17.3054 87.278 17.854 86.523 17.879C86.429 17.8817 86.335 17.8877 86.243 17.8964C86.215 18.13 86.188 18.3625 86.173 18.5994C86.175 18.7028 86.22 18.8055 86.237 18.9087C84.808 18.6119 84.863 20.0849 83.775 20.1965C83.769 20.2006 83.762 20.204 83.756 20.2081C83.767 20.208 83.778 20.2075 83.79 20.2074C84.287 20.4059 84.785 20.604 85.283 20.814C85.273 20.8184 85.261 20.8214 85.251 20.8258C85.266 20.8254 85.282 20.8265 85.298 20.8261C85.822 20.8973 86.373 20.853 86.873 21.1781C85.406 21.2043 84.139 21.8599 82.643 21.8407C81.916 21.8306 81.072 21.7418 80.427 22.2255C79.737 22.6639 78.936 22.5166 78.179 22.4726C74.704 22.2928 71.251 22.5165 67.816 22.9579C65.504 23.6555 63.099 24.0777 60.632 24.2254C59.757 24.8284 58.788 25.0993 57.65 24.8432C57.121 24.4843 56.64 24.3896 55.934 24.713C55.012 25.1326 53.904 24.9565 52.859 25.0097C52.443 25.282 51.932 25.1754 51.468 25.2066C51.381 25.1871 51.294 25.1709 51.206 25.1573C51.157 25.2233 51.073 25.2461 50.916 25.2052C50.728 25.2777 50.54 25.3509 50.352 25.4234C49.717 25.6301 49.032 25.4692 48.366 25.5499C47.528 25.6438 48.066 24.9308 47.838 24.6135C47.834 24.6065 47.829 24.5994 47.825 24.5924C46.894 24.4939 45.948 25.2595 44.728 24.4295C46.572 24.4872 47.734 23.737 48.931 23.069C49.104 22.9759 49.276 22.8829 49.448 22.7899C49.471 22.7298 49.493 22.6698 49.515 22.6098C49.893 21.7616 50.955 21.6889 51.839 21.6191C53.333 21.4888 54.861 21.5653 56.29 21.0561C56.6 20.9494 56.765 21.1962 56.95 21.3333C56.954 21.3329 56.959 21.3324 56.963 21.332C56.963 21.3357 56.963 21.3395 56.963 21.3432C58.527 21.0274 60.09 20.7116 61.654 20.3957C61.614 20.3425 61.574 20.2892 61.534 20.2359C61.007 19.464 61.43 19.1226 62.571 18.9511C63.365 18.8337 64.128 18.6372 64.951 18.5982H64.949C65.507 18.3605 65.79 17.9544 66.073 17.5468C64.41 16.9508 62.795 17.3586 61.261 17.9263C60.409 18.2409 59.612 18.3938 58.736 18.1446C57.422 17.765 56.19 17.9597 54.993 18.4532C53.768 18.9587 52.497 19.4192 51.346 20.0501C48.613 21.5498 45.5 22.1582 42.25 22.4235C39.871 22.6158 37.557 23.1749 35.163 23.3328C33.262 23.4589 31.423 22.9741 29.523 23.1692C29.349 23.1838 29.173 23.0831 29.026 22.9937C28.873 22.9032 28.718 22.8139 28.562 22.726C27.081 21.8908 25.508 21.1723 23.855 20.587C23.811 20.5849 23.77 20.5788 23.73 20.5724C23.786 20.9089 23.995 21.2447 23.887 21.611C23.531 22.8036 22.252 22.8036 21.182 23.0876C21.176 23.0903 21.168 23.092 21.161 23.0947C21.168 23.096 21.176 23.0976 21.183 23.0988C21.097 23.1809 20.911 23.265 20.926 23.3452C21.015 24.2764 19.926 25.1138 18.532 25.1503C16.92 25.1791 15.308 25.2078 13.696 25.2366C13.689 24.8453 14.185 25.0204 14.254 24.7892C14.261 24.7811 14.27 24.774 14.278 24.7663C14.265 24.7703 14.252 24.7739 14.24 24.7782C14.212 24.0416 14.96 24.4199 15.35 24.2748C15.374 24.2743 15.399 24.2739 15.424 24.2734C16.171 23.8676 17.26 24.0775 17.861 23.4123C17.865 23.4076 17.868 23.4022 17.871 23.3975C17.858 23.3944 17.845 23.3926 17.833 23.3892C17.176 23.2512 16.451 23.3449 15.863 22.9869C15.88 22.9807 15.901 22.976 15.922 22.9701C15.898 22.9638 15.872 22.9582 15.848 22.9523C15.045 22.6903 14.215 22.5897 13.342 22.5247C12.426 22.4604 11.395 22.4561 11.13 21.4362C11.036 21.0578 10.468 21.0682 10.077 21.1097C9.308 21.1925 8.52499 21.2182 7.81799 21.5302C7.79599 21.5489 7.77099 21.5658 7.74899 21.5843C7.78299 21.581 7.81601 21.5788 7.84801 21.5757C8.05001 22.355 7.447 22.7568 6.668 23.024C4.603 23.7173 2.325 19.0161 0 19C3.5 13.5 -25.504 15.0001 -8.5 21.1097C5.44455 26.12 -6.941 25.6401 -9.286 26.1081C-10.633 26.3739 -11.856 26.1766 -13.122 26.0956C-13.117 26.0895 -13.115 26.0824 -13.111 26.0763C-13.124 26.0787 -13.138 26.0826 -13.152 26.0849C-13.147 26.0848 -13.142 26.0847 -13.137 26.0846C-14.797 26.6899 -16.457 27.2607 -18.299 27.4319C-18.444 27.4345 -18.557 27.632 -18.686 27.7379C-18.862 27.6605 -19.052 27.5945 -19.228 27.5171C-19.291 27.2655 -20.199 27.6263 -19.777 26.8937C-19.467 26.3469 -20.269 26.1769 -20.936 26.2463C-21.501 26.3027 -22.032 26.6574 -22.72 26.3704C-21.816 25.7671 -20.598 26.4014 -19.767 25.7992C-19.761 25.7956 -19.754 25.7924 -19.748 25.7888C-19.75 25.7884 -19.751 25.7881 -19.753 25.7877C-19.86 25.4672 -19.571 25.3925 -19.281 25.3182C-19.286 25.3224 -19.291 25.3266 -19.295 25.3308C-19.284 25.3251 -19.274 25.319 -19.263 25.3134C-19.274 25.3109 -19.285 25.3098 -19.296 25.3072C-19.359 25.0092 -19.637 24.9335 -19.971 24.9279C-21.316 24.9065 -20.346 24.5295 -20.14 24.273C-21.047 24.2567 -21.952 24.3265 -22.878 24.0351C-22.493 23.6483 -22.121 23.2622 -21.708 22.8288C-22.471 22.4164 -23.303 22.1892 -24.423 22.1171C-23.438 21.6543 -22.315 21.7765 -21.828 21.0192C-21.834 21.0012 -21.837 20.9828 -21.843 20.9655C-22.604 20.1604 -23.625 20.5925 -24.56 20.5866C-24.572 20.5983 -24.584 20.6103 -24.595 20.6232C-25.476 20.7752 -26.214 20.7011 -26.642 20.1301C-26.66 20.1332 -26.677 20.1396 -26.696 20.1423C-27.785 20.1619 -27.606 21.2519 -28.474 21.4516C-28.633 21.4734 -28.791 21.4899 -28.947 21.5006C-29.058 21.6474 -29.026 21.8129 -28.609 22.0422C-28.08 22.3437 -27.462 22.8043 -28.469 23.3173C-28.858 23.52 -28.564 23.6768 -28.358 23.8113C-27.933 24.0568 -27.451 24.1981 -26.93 24.1198C-25.858 23.951 -25.444 24.3001 -25.603 25.178C-27.239 24.8178 -28.886 24.4503 -30.534 24.0875C-30.851 24.2871 -31.257 24.4302 -31.747 24.4937C-32.977 24.5487 -34.139 24.289 -35.305 24.0766C-35.694 24.0058 -36.084 23.9402 -36.476 23.8933C-36.451 23.9514 -36.429 24.0099 -36.418 24.0699C-36.276 24.6893 -36.149 25.2972 -37.383 25.3423C-38.21 25.3686 -38.724 25.8961 -39.224 26.3772C-40.264 26.1847 -41.303 25.9922 -42.343 25.7997C-42.511 25.8053 -42.679 25.8109 -42.846 25.8166C-45.366 25.8779 -47.904 25.6076 -50.417 25.9439C-51.809 26.1299 -53.145 26.1992 -54.5 25.947C-54.504 25.9436 -54.509 25.9406 -54.513 25.9371C-57.639 26.3715 -60.816 26.429 -63.974 26.7269C-64.339 26.7668 -64.676 26.7395 -65.003 26.6283C-65.013 26.6288 -65.024 26.6306 -65.035 26.6311C-67.058 26.4484 -69.054 26.1266 -71.099 26.2783C-71.856 26.2112 -72.589 25.8794 -73.398 26.1011C-73.656 26.0435 -73.916 25.9896 -74.174 25.9339C-75.373 25.9392 -76.548 25.6101 -77.764 25.7067C-79.301 25.0433 -81.015 25.0276 -82.685 25.0805C-83.658 25.1209 -84.639 25.4956 -84.766 26.4998C-85.636 26.642 -86.115 25.8783 -86.986 25.8939C-86.266 25.5817 -85.438 25.5324 -84.821 25.1186C-84.825 25.1132 -84.831 25.1093 -84.835 25.1042C-85.126 25.115 -85.416 25.1283 -85.706 25.1456C-88.603 25.6119 -91.485 26.0892 -94.482 25.8894C-95.194 25.8445 -95.911 25.6047 -96.649 25.756C-97.152 25.8098 -97.652 25.8151 -98.151 25.7975C-98.193 25.9613 -98.166 26.1228 -98.006 26.2863C-98.012 26.291 -98.02 26.2945 -98.027 26.2991C-98.024 26.2989 -98.022 26.2991 -98.02 26.299C-97.686 26.2815 -97.352 26.2637 -97.003 26.2459C-96.999 26.2459 -96.994 26.2458 -96.989 26.2457C-96.038 25.8026 -95.124 25.7515 -94.513 26.5929C-94.215 27.0021 -94.263 27.5784 -95.048 27.5235C-96.052 27.4608 -97.056 27.3872 -98.073 27.3593C-98.582 27.3454 -98.471 27.0552 -98.33 26.7993C-98.327 26.7935 -98.324 26.7879 -98.32 26.7823C-98.328 26.7842 -98.336 26.7864 -98.344 26.7883C-98.612 26.7931 -98.88 26.7922 -99.148 26.7907C-100.264 26.7842 -101.382 26.7656 -102.466 27.0914C-103.41 27.0737 -104.34 27.0683 -105.284 27.0506C-105.299 27.0508 -105.329 26.9936 -105.33 26.9704C-105.33 26.936 -105.302 26.9009 -105.288 26.8662C-105.273 26.863 -105.259 26.8596 -105.244 26.8564C-105.254 26.8551 -105.264 26.855 -105.274 26.8536C-105.356 26.7546 -105.432 26.6566 -105.51 26.5575C-105.531 26.5512 -105.55 26.5429 -105.57 26.5372C-105.567 26.5233 -105.563 26.5094 -105.56 26.4954C-105.561 26.4936 -105.562 26.4917 -105.564 26.4899C-108.052 26.4165 -110.54 26.3436 -113.028 26.27C-113.648 26.2789 -114.27 26.272 -114.889 26.22C-115.689 26.1537 -116.444 26.1668 -117.21 26.3762C-118.01 26.2753 -118.365 26.777 -118.838 27.1194C-118.93 27.121 -119.022 27.1227 -119.114 27.1243C-119.126 27.1306 -119.139 27.1348 -119.151 27.1407C-119.134 27.1387 -119.116 27.1373 -119.099 27.1353C-119.732 27.446 -120.366 27.7571 -121 28.0678C-121.001 28.064 -121.004 28.0604 -121.005 28.0567C-121.722 28.301 -121.493 28.9989 -122.052 29.3653C-122.856 29.8976 -123.757 29.9137 -124.701 29.9536C-125.673 29.994 -126.631 30.0567 -127.603 30.1201C-128.229 30.0391 -128.871 29.8891 -129.496 29.8772C-130.484 29.8603 -131.202 29.5054 -131.621 28.8681C-132.143 28.0829 -132.549 28.147 -133.205 28.7918C-133.534 29.1202 -133.42 29.8328 -134.074 29.7869C-134.903 29.7326 -135.834 29.6224 -136.482 29.1506C-137.556 28.3752 -138.772 27.8893 -140.227 27.7656C-140.231 27.7658 -140.236 27.7656 -140.241 27.7658C-141.272 27.7612 -142.331 27.8728 -143.338 27.6029C-143.335 27.5987 -143.332 27.5945 -143.33 27.5904C-143.332 27.5906 -143.335 27.5915 -143.338 27.5917C-147.509 27.6434 -151.666 27.6824 -155.836 27.7339C-155.878 27.7415 -155.919 27.7519 -155.961 27.7586C-158.31 27.8005 -160.665 27.8947 -163.018 27.9301C-163.982 27.9445 -164.946 27.9491 -165.909 27.9362C-167.667 27.91 -169.405 27.4114 -171.218 27.5935C-171.478 27.6209 -171.612 27.4396 -171.63 27.2444C-171.63 27.2406 -171.63 27.2369 -171.63 27.2331C-171.608 27.231 -171.587 27.2284 -171.565 27.2263C-171.582 27.2204 -171.599 27.2156 -171.616 27.2093C-172.405 27.2233 -173.194 27.2374 -173.983 27.2515C-174.257 27.36 -174.532 27.4573 -174.839 27.3365C-174.88 27.308 -174.916 27.2775 -174.947 27.2462C-175.948 27.2641 -176.949 27.2821 -177.963 27.3226C-178.544 27.3329 -179.154 27.344 -179.583 27.7316C-184.431 27.9563 -189.18 27.2356 -193.966 26.8604C-194.941 26.7857 -195.738 26.1083 -196.873 25.9789C-199.435 25.6907 -202.031 25.9671 -204.566 25.5978C-204.567 25.5955 -204.567 25.5933 -204.569 25.5911C-204.572 25.5933 -204.576 25.5957 -204.58 25.598C-204.577 25.595 -204.573 25.5919 -204.57 25.5888L-204.571 25.5866C-206.265 25.7872 -207.861 25.0239 -209.555 25.2381C-209.55 25.238 -209.545 25.2379 -209.54 25.2378C-209.539 25.3068 -209.538 25.3758 -209.551 25.445C-210.379 25.4598 -211.192 25.4751 -212.021 25.4553C-212.858 25.436 -213.527 25.186 -213.762 24.4765C-213.768 24.4712 -213.776 24.4664 -213.782 24.4611C-214.029 24.4425 -214.291 24.4246 -214.538 24.406C-215.905 24.3498 -217.272 24.2473 -218.632 24.5826C-218.994 24.6696 -219.43 24.6314 -219.838 24.6041C-220.172 24.587 -220.421 24.4529 -220.41 24.2454C-220.415 23.9466 -220.037 23.9969 -219.776 23.9923C-219.181 23.9817 -218.585 23.948 -217.975 23.9602C-217.132 23.9681 -216.439 23.7602 -216.029 23.1314C-215.126 22.4704 -213.987 22.6917 -212.942 22.6501C-212.599 22.3676 -212.416 22.0647 -212.828 21.7382C-213.093 21.5357 -213.184 21.3411 -212.868 21.1282L-212.864 21.1281C-212.648 20.9707 -212.243 21.0909 -212.044 20.9178C-210.673 20.9372 -209.302 20.9657 -207.931 20.9861C-208.268 20.6733 -208.64 20.4077 -209.308 20.3618C-209.832 20.3249 -210.563 20.0391 -210.184 19.3303C-209.692 19.2179 -208.977 19.3999 -208.783 18.8667C-208.59 18.2993 -209.419 18.1528 -209.702 17.7664C-209.675 17.7659 -209.649 17.768 -209.623 17.7683C-209.655 17.7567 -209.686 17.7433 -209.718 17.7318C-211.208 17.4727 -212.698 17.2137 -214.173 16.9544C-214.184 16.9604 -214.196 16.9654 -214.207 16.9718C-215.368 16.9811 -216.53 16.9787 -217.706 16.9882C-217.702 16.9881 -217.697 16.988 -217.692 16.988C-216.522 16.3453 -215.291 16.4197 -214.058 16.5553C-213.833 16.3433 -213.395 16.4034 -213.04 16.3639C-212.9 16.3614 -212.759 16.3589 -212.619 16.3564C-211.848 16.4118 -211.088 16.6281 -210.437 16.5244C-210.669 16.5125 -210.985 16.5187 -211.135 16.3344C-211.158 16.3293 -211.18 16.3239 -211.202 16.3188C-211.255 16.3409 -211.32 16.3309 -211.4 16.2885C-212 16.2237 -212.661 16.3725 -213.214 16.096C-213.25 16.0757 -213.286 16.0553 -213.323 16.035C-213.557 15.9649 -213.791 15.8949 -214.026 15.8248C-214.725 15.622 -215.428 15.4795 -216.262 15.7534C-216.68 15.8876 -217.466 15.8433 -217.752 15.2841C-217.68 15.2828 -217.593 15.2704 -217.52 15.2462C-217.516 15.2461 -217.511 15.246 -217.506 15.2459C-216.153 15.3945 -214.913 14.842 -213.592 14.7723C-213.522 14.8024 -213.45 14.8201 -213.379 14.8326C-213.455 14.8095 -213.53 14.7842 -213.606 14.7613C-213.447 14.747 -213.288 14.721 -213.114 14.7064C-213.101 14.6782 -213.083 14.6523 -213.065 14.6268C-212.93 14.3404 -213.32 14.1825 -213.418 13.9516C-213.03 13.7029 -212.487 13.9701 -212.301 13.8057C-211.777 13.0823 -213.944 13.7082 -212.813 12.7667C-212.741 12.7654 -212.669 12.7641 -212.596 12.7628C-211.801 13.0283 -210.971 12.9136 -210.152 12.9036C-210.141 12.8803 -210.128 12.8565 -210.111 12.8331C-210.104 12.8266 -210.097 12.8209 -210.09 12.8148C-210.265 12.1499 -209.966 11.8518 -209.019 12.0658C-209.052 12.2338 -209.09 12.3977 -209.127 12.5625C-207.955 12.4605 -206.898 12.0269 -205.786 11.7775C-204.382 11.476 -202.929 11.4956 -201.487 11.6771C-200.247 11.9659 -198.994 12.174 -198.02 13.0086C-197.474 13.4826 -196.415 13.3946 -195.598 13.5873C-195.131 13.6941 -194.636 13.7205 -194.212 13.9202C-193.674 13.9106 -193.137 13.9007 -192.6 13.9027C-192.597 13.9033 -192.592 13.903 -192.589 13.9036C-192.592 13.8994 -192.597 13.8959 -192.6 13.8914C-192.448 13.4971 -192.062 13.1441 -192.506 12.6684C-192.727 12.4309 -192.308 12.3426 -192.017 12.3717C-192.006 12.3796 -191.993 12.3853 -191.982 12.3925C-191.299 12.372 -190.704 12.1155 -190.079 11.9345C-190.084 11.9308 -190.088 11.9272 -190.093 11.9235C-189.861 11.9092 -189.629 11.8859 -189.397 11.8695C-189.551 11.0612 -188.683 11.0337 -188.093 10.7935C-185.281 11.2614 -182.419 11.3023 -179.558 11.2743C-179.562 11.2823 -179.567 11.2902 -179.572 11.2982C-179.659 11.3304 -179.746 11.3618 -179.834 11.3939C-179.745 11.3835 -179.664 11.3609 -179.6 11.3099C-179.59 11.306 -179.581 11.3021 -179.572 11.2982C-179.297 11.2011 -179.022 11.1038 -178.748 11.0068C-178.474 10.9098 -178.17 10.8808 -177.88 10.8181C-177.815 10.8212 -177.749 10.8186 -177.683 10.8191C-177.451 10.6769 -177.218 10.5856 -176.983 10.5356C-177.143 10.5083 -177.304 10.4814 -177.466 10.4542C-177.815 10.4028 -178.065 10.234 -178.085 9.95804C-178.103 9.6938 -177.653 9.68559 -177.568 9.55744C-176.205 7.78286 -173.877 8.81264 -172.084 8.33151C-170.899 8.32109 -169.773 7.90642 -168.582 7.94959C-168.502 7.95453 -168.422 7.95948 -168.342 7.96442C-167.343 7.76259 -166.172 8.29481 -166.188 9.00899C-166.208 9.51586 -166.795 9.25015 -167.128 9.31367C-167.171 9.32982 -167.214 9.34596 -167.257 9.3621C-167.891 9.68407 -169.231 9.45505 -168.982 10.4174C-168.779 11.2197 -167.65 10.993 -166.85 11.0362C-166.697 10.9784 -166.53 10.9281 -166.375 10.9265C-165.335 10.7663 -164.358 11.1199 -163.316 11.2893C-163.282 11.2948 -163.247 11.3001 -163.213 11.3053C-163.25 11.3241 -163.283 11.3448 -163.314 11.367C-163.776 11.6976 -163.715 12.3732 -164.545 12.3772C-164.545 12.3731 -164.545 12.3689 -164.545 12.3648C-164.546 12.3618 -164.547 12.3589 -164.548 12.3559C-164.553 12.3624 -164.554 12.3708 -164.559 12.3774C-164.204 12.7088 -163.756 12.7829 -163.288 12.806C-162.785 12.8309 -162.258 12.7963 -161.803 12.9614C-161.469 13.0828 -161.034 13.1401 -160.911 13.4077C-160.215 13.4415 -159.525 13.5641 -158.815 13.5412C-158.71 13.5394 -158.609 13.5279 -158.512 13.5111C-158.695 13.404 -158.892 13.299 -158.72 13.1133C-158.123 13.0271 -157.512 12.9401 -156.913 12.8539C-156.878 12.8408 -156.844 12.8265 -156.808 12.8149C-155.984 12.5814 -155.145 12.3584 -154.322 12.1249C-153.926 11.5078 -153.001 11.2495 -152.708 10.5767C-152.956 10.5236 -153.203 10.4702 -153.451 10.4056C-151.265 9.97497 -149.084 10.0736 -146.921 9.97745C-146.878 9.96038 -146.831 9.94839 -146.782 9.93784C-145.949 9.51105 -146.329 9.16869 -147.028 8.85133C-147.453 8.65172 -148.031 8.81113 -148.43 8.43888C-148.301 8.37908 -148.187 8.29642 -148.085 8.29439C-146.37 8.35589 -144.734 8.82102 -143.006 8.76715C-142.489 8.75792 -142.532 9.20152 -142.285 9.42681C-142.238 9.44212 -142.193 9.46226 -142.15 9.48964C-142.15 9.49713 -142.15 9.50463 -142.15 9.51212C-140.062 10.0852 -137.892 9.63243 -135.767 9.85925C-135.504 9.91213 -135.241 9.97675 -134.979 10.0296C-134.959 10.0248 -134.938 10.0215 -134.918 10.0173C-134.929 10.0133 -134.939 10.0095 -134.95 10.0055C-133.838 9.60587 -132.813 10.0485 -131.736 10.1674C-129.887 10.3762 -127.984 10.4117 -126.328 11.2112C-125.712 11.5686 -125.969 11.815 -126.535 11.8481C-126.776 11.8668 -127.017 11.8736 -127.258 11.8858C-127.249 11.8887 -127.239 11.8925 -127.23 11.8954C-127.688 12.318 -128.866 12.293 -128.443 13.1722C-128.448 13.176 -128.453 13.1798 -128.457 13.1836C-128.476 13.1828 -128.494 13.181 -128.513 13.1801C-128.494 13.185 -128.476 13.191 -128.457 13.1949C-126.076 13.1524 -123.675 13.3171 -121.316 12.8604C-121.338 12.8069 -121.36 12.7533 -121.382 12.6997C-121.763 11.9529 -122.81 12.0053 -123.659 11.7507C-122.827 11.1716 -121.622 11.979 -120.998 11.1273C-120.465 11.1178 -119.933 11.1083 -119.401 11.0988C-118.642 12.1102 -118.726 12.2733 -120.212 12.8756C-120.168 12.8958 -120.125 12.916 -120.081 12.9362C-119.447 13.2008 -118.755 12.9833 -118.08 13.0074C-118.175 12.8217 -118.112 12.6397 -117.966 12.4554C-117.525 11.9409 -115.575 11.3757 -114.73 11.5215C-114.213 11.6407 -113.721 11.5652 -113.231 11.4644C-113.246 11.4524 -113.264 11.4409 -113.278 11.427C-113.279 11.4232 -113.279 11.4195 -113.279 11.4157C-113.528 11.282 -113.777 11.1475 -114.026 11.0253C-113.702 11.0195 -113.378 11.0138 -113.053 11.008C-112.465 11.0948 -111.866 11.1431 -111.299 11.2634C-111.152 11.2722 -111.006 11.2942 -110.868 11.3491C-109.554 11.7057 -108.461 11.0761 -107.333 10.745C-106.568 10.5241 -105.876 10.201 -105.002 10.3694C-104.507 10.4681 -104.132 10.179 -103.703 10.0414C-104.298 9.74192 -105.031 10.1368 -105.675 10.0822C-106.214 10.0344 -106.762 10.2281 -107.314 10.215C-107.823 10.2124 -107.638 9.97845 -107.408 9.80166C-105.42 9.76616 -103.432 9.73067 -101.444 9.69517C-101.414 9.68764 -101.383 9.68029 -101.353 9.67104C-101.362 9.67871 -101.372 9.68638 -101.382 9.69406C-100.706 9.67755 -100.077 9.52037 -99.459 9.33145C-98.472 9.02959 -97.513 8.6467 -96.433 8.62725C-96.273 8.6244 -95.984 8.52666 -95.956 8.44555C-95.592 6.88472 -93.752 7.38107 -92.598 6.94605C-91.978 6.70464 -91.225 6.55386 -90.53 7.20941C-90.205 7.51449 -89.403 7.64892 -88.552 7.3113C-87.744 6.99748 -87.007 6.76548 -86.466 6.16852C-86.281 5.95828 -85.862 5.83568 -85.53 5.74919C-84.995 5.613 -84.031 5.88347 -84.041 5.31998C-84.05 4.80443 -85.054 4.92119 -85.639 4.78508C-86.358 5.05408 -86.748 6.01109 -87.961 5.46982C-87.565 5.03955 -87.035 4.81144 -86.506 4.57337C-86.507 4.56821 -86.508 4.56299 -86.509 4.55768C-86.107 4.27418 -85.753 3.83007 -85.275 3.72929C-84.696 3.60381 -83.8 3.33435 -83.482 4.05378C-83.148 4.81942 -81.106 5.3364 -82.887 6.46226C-83.131 6.6163 -83.592 6.80826 -83.31 7.17158C-83.042 7.51224 -82.668 7.34534 -82.321 7.25852C-82.232 7.21157 -82.143 7.16462 -82.054 7.11767C-81.784 6.86041 -81.429 6.51937 -81.038 6.7284C-80.422 7.06282 -80.541 7.69824 -80.474 8.21522C-80.44 8.47942 -80.74 8.74977 -80.822 9.03905C-80.973 9.55998 -80.867 9.73097 -79.995 9.73844C-77.38 9.77231 -74.828 9.4396 -72.262 9.18649C-72.257 9.18229 -72.253 9.17809 -72.249 9.17389C-72.249 9.16648 -72.249 9.15897 -72.248 9.15138C-69.182 9.20025 -66.226 8.76663 -63.336 7.92048C-62.57 7.69951 -61.728 7.6277 -60.901 7.55535C-59.987 7.46997 -58.97 7.48623 -58.389 6.64678C-58.219 6.40191 -57.583 6.22923 -57.176 6.24499C-54.691 6.28113 -52.31 5.40956 -49.822 5.64134C-47.625 5.84395 -45.34 5.18173 -43.205 5.98429C-43.193 5.99145 -43.18 5.99706 -43.167 6.00387C-42.818 5.98101 -42.408 6.02071 -42.443 5.57819C-42.443 5.57445 -42.443 5.5707 -42.443 5.56695C-43.477 5.43554 -43.767 4.66916 -44.343 4.11522C-43.653 3.72294 -43.042 3.74672 -42.408 4.27636C-41.88 4.71359 -41.323 5.13923 -40.908 5.65763C-40.906 5.65652 -40.903 5.65638 -40.901 5.65525C-40.084 6.41592 -40.372 7.10853 -41.765 7.73214C-41.763 7.72523 -41.763 7.71757 -41.761 7.7107C-41.763 7.71342 -41.763 7.71707 -41.765 7.71977C-41.765 7.7239 -41.765 7.72802 -41.765 7.73214C-41.818 7.98261 -41.942 8.16542 -42.308 8.12197C-42.309 8.12943 -42.308 8.13706 -42.309 8.14448C-43.512 8.29265 -44.654 8.69338 -45.95 8.53226C-46.75 8.43175 -46.26 8.99856 -46.268 9.40166C-47.526 8.89446 -48.806 8.81291 -50.11 8.9743C-50.124 8.97784 -50.139 8.98266 -50.153 8.9863C-50.31 9.56141 -49.629 9.46289 -49.302 9.52443C-48.383 9.6923 -47.565 9.98917 -46.959 10.5656C-46.398 11.0966 -45.789 11.0049 -45.126 10.7398C-44.232 10.3669 -43.321 10.0744 -42.321 9.96436C-42.362 9.99547 -42.407 10.0234 -42.45 10.0533C-42.406 10.039 -42.363 10.0244 -42.32 10.0105C-42.311 9.99867 -42.301 9.98688 -42.292 9.97509C-41.945 9.91131 -41.496 9.76547 -41.288 10.0381C-41.125 10.2425 -41.555 10.4919 -41.609 10.7232C-41.731 11.232 -42.559 11.3048 -42.502 12.0178C-42.403 13.5369 -40.724 12.859 -39.952 13.3668C-39.947 13.3659 -39.941 13.3664 -39.936 13.3654C-38.774 13.3522 -37.612 13.3389 -36.449 13.3257C-36.157 13.1202 -35.839 12.9512 -35.506 12.8005C-35.17 12.6479 -34.817 12.5142 -34.462 12.3803C-34.173 12.2716 -33.403 12.304 -33.82 11.6784C-34.044 11.3484 -33.649 11.5021 -33.46 11.4987C-32.966 11.4899 -32.458 11.4463 -31.964 11.472C-31.223 11.5048 -30.613 11.5054 -30.918 10.6819C-30.994 10.476 -30.853 10.2428 -30.594 10.1115C-30.335 9.9806 -30.114 10.1031 -29.995 10.2391C-28.314 12.4547 -25.571 12.3259 -22.842 12.2426C-22.413 12.6609 -22.699 12.9305 -23.176 13.0887C-23.638 13.2466 -24.039 13.5189 -24.592 13.4828C-24.635 13.4911 -24.679 13.497 -24.722 13.5043C-24.685 13.5445 -24.626 13.5719 -24.532 13.574C-23.336 13.5925 -22.163 13.6464 -21.255 14.2701C-21.143 14.2517 -21.031 14.2268 -20.919 14.1888C-20.791 14.0893 -20.65 14.015 -20.499 13.9586C-20.607 13.9135 -20.725 13.8791 -20.851 13.8535C-21.288 13.7692 -21.625 13.6251 -21.589 13.2099C-21.552 12.841 -21.221 12.6619 -20.861 12.4828C-20.3 12.1968 -19.714 12.474 -19.149 12.3948C-18.325 12.1498 -17.468 12.0881 -16.583 12.0263C-15.22 11.9213 -13.914 11.8635 -12.559 11.2751C-11.088 10.65 -9.336 10.3314 -7.763 9.72747C-6.854 9.37731 -5.893 9.49802 -4.957 9.8382C-3.7 10.2879 -0.075 18.8138 1 18C1.5 18.5 -0.529 15.9775 -0.5 16C0.941 16.9762 2.353 8.32563 3.776 9.87796C4.072 10.1949 4.69899 9.58557 4.72099 9.21665C4.73799 8.50236 5.29901 8.20374 5.96201 7.92702C6.40701 7.68518 6.80999 7.70602 7.16299 7.96294C7.13799 7.82833 7.14399 7.68578 7.19099 7.53733C7.32799 7.06272 7.969 7.13149 8.448 7.09991C8.986 7.14784 9.538 7.19559 10.076 7.26651C10.499 7.31655 10.938 7.49323 11.017 7.81429C11.111 8.21558 10.722 8.45319 10.275 8.6339C9.52499 8.93496 8.753 8.81086 7.968 8.76731C7.826 8.71153 7.704 8.64316 7.597 8.56925C7.602 8.71651 7.514 8.86269 7.276 9.0091C7.104 9.16186 6.77199 9.32949 6.77499 9.47915C6.79499 9.77809 7.185 9.6676 7.446 9.66284C9.233 9.64246 11.019 9.5412 12.787 9.29083C14.25 9.08062 15.735 9.26165 17.176 8.60291C17.939 8.2438 18.985 9.05407 19.962 9.23245C20.866 9.40057 22.114 9.40135 22.007 10.6816C21.972 11.1427 24.084 11.4616 24.964 11.1236C25.31 10.9908 25.628 10.8928 26.005 10.8745C26.812 10.8137 27.598 10.6339 28.344 10.552C28.524 10.5322 28.701 10.5182 28.876 10.5128C28.715 10.4764 28.535 10.5033 28.344 10.5355C28.032 10.5882 27.692 10.6551 27.364 10.4825C26.971 10.4204 26.592 10.346 26.199 10.284C26.213 10.2754 26.228 10.2679 26.242 10.2596C26.214 10.2682 26.184 10.2757 26.155 10.2847C25.157 10.5328 24.283 10.3984 23.253 9.67978C25.053 9.86473 26.732 9.80355 28.326 9.54594C30.2 9.24326 31.956 8.66939 33.653 7.90497C33.656 7.91941 33.656 7.93436 33.658 7.94874C33.67 7.93362 33.684 7.91964 33.696 7.9042C33.9 7.50887 34.133 7.12446 34.759 7.07098C34.758 7.06616 34.757 7.06134 34.756 7.05641C34.914 7.01924 35.072 6.98164 35.231 6.94447C35.169 6.66846 35.142 6.23481 34.658 6.41374C33.792 6.7401 33.096 6.83259 32.118 6.5738C31.783 6.4877 31.114 6.43016 30.589 6.32445C32.244 6.04318 33.964 6.15804 35.575 5.71247C35.584 5.70667 35.594 5.6996 35.604 5.69395C36.006 5.45668 36.499 5.40158 36.901 5.12985C38.12 4.27889 39.099 4.50273 39.599 5.67998C39.751 6.04555 40.097 5.94761 40.371 5.85064C41.165 5.5831 41.945 5.27006 42.739 4.9795C42.739 4.98324 42.739 4.98699 42.739 4.99074C44.819 4.32027 46.794 3.46725 48.918 2.86506C49.916 2.58238 50.396 1.74395 50.716 0.989669ZM-29.803 26.7623C-28.223 26.5153 -27.009 27.0344 -25.728 27.1383C-25.074 27.1957 -25.051 27.6448 -25.102 28.0718C-25.804 28.0843 -26.506 28.0969 -27.208 28.1094C-27.572 27.2062 -28.72 27.1804 -29.803 26.7623ZM-111.061 27.3832C-109.812 27.3609 -108.564 27.3395 -107.705 28.2454C-107.471 28.3219 -107.121 28.3384 -107.117 28.5802C-107.113 28.8447 -107.491 28.8167 -107.707 28.9011C-108.809 29.0129 -109.913 29.0211 -111.017 28.9602C-111.023 28.9563 -111.03 28.9532 -111.036 28.9493C-113.066 29.1352 -115.095 29.3218 -117.356 29.5233C-116.439 28.8505 -115.055 29.1016 -114.694 28.1397C-114.691 28.1396 -114.687 28.1396 -114.684 28.1395C-114.855 28.0434 -115.041 27.9558 -115.31 27.8054C-113.849 27.4338 -112.438 27.5007 -111.045 27.3952C-111.051 27.3912 -111.056 27.3872 -111.061 27.3832ZM19.296 25.7406C19.287 25.743 19.278 25.7453 19.269 25.7478C19.279 25.7435 19.288 25.7392 19.297 25.7349L19.296 25.7406ZM-121.014 28.0557C-121.011 28.0557 -121.008 28.0566 -121.005 28.0567C-121.006 28.0525 -121.006 28.0473 -121.008 28.0432C-121.01 28.0474 -121.012 28.0515 -121.014 28.0557ZM108.764 20.1878C109.081 19.2496 110.146 18.689 111.311 18.9097C111.822 19.0042 112.245 19.1354 112.226 19.6997C112.195 20.3913 112.597 20.8907 113.557 20.9772C114.945 21.39 116.379 21.2146 117.71 20.903C118.694 20.6667 119.535 20.5947 120.257 21.1342C121.552 22.1015 124.282 22.9939 125.549 22.3724C127.177 21.5834 127.478 20.3149 129.291 20.1789C131.54 20.0006 133.778 20.0752 136.016 20.0813C138.703 20.0794 141.322 20.2864 143.943 20.5966C144.263 20.6368 144.783 20.4779 144.805 20.9028C144.812 21.2597 144.467 21.4965 144.018 21.5737C142.585 21.8296 141.137 22.1206 139.651 21.871C138.923 21.7458 138.209 21.6317 137.533 22.0235C137.332 22.1422 136.984 22.1942 136.75 22.1409C133.426 21.4748 130.208 21.9009 127.042 22.7866C126.666 22.8969 126.231 22.8934 125.825 22.9467C125.819 22.9371 125.809 22.9291 125.803 22.9201C125.791 22.933 125.777 22.945 125.767 22.959C125.462 22.9874 125.157 22.9584 124.921 22.7784L124.918 22.7751C119.218 23.7972 113.496 23.5337 107.783 23.0619C104.772 22.8162 101.735 22.7893 98.71 22.6244C96.965 22.5289 95.234 22.4334 93.49 22.3724C93.061 22.3606 92.722 22.2404 92.441 22.0403C92.389 22.0033 92.339 21.9637 92.29 21.9215C91.892 21.5833 91.438 21.373 90.857 21.3487C90.838 21.3528 90.818 21.3569 90.799 21.361C90.355 20.8968 90.775 20.8311 91.238 20.7537C91.63 20.6954 92.022 20.6402 92.415 20.5929C93.344 20.4811 94.278 20.4134 95.228 20.4531C99.313 20.622 103.422 20.4217 107.497 20.8211C108.122 20.8789 108.598 20.6858 108.764 20.1878ZM-130.437 26.4594C-130.204 26.9548 -130.554 27.2283 -131.14 27.2929C-131.198 27.2999 -131.257 27.3064 -131.315 27.3129C-131.12 27.3519 -130.933 27.408 -130.767 27.5022C-130.643 26.9884 -130.141 26.8472 -129.403 26.9965C-129.364 27.0042 -129.324 27.0112 -129.286 27.0191C-129.685 26.8812 -130.074 26.695 -130.437 26.4594ZM-126.441 27.1314C-126.733 27.2194 -127.041 27.2729 -127.357 27.2929C-127.345 27.2927 -127.332 27.2935 -127.319 27.2933C-126.988 27.2874 -126.682 27.2502 -126.441 27.1314ZM27.272 23.9573C27.697 23.918 28.126 23.8642 28.582 23.8353C29.119 23.8012 29.695 23.802 30.349 23.9024C29.704 24.1208 29.129 24.1262 28.586 24.0812C28.132 24.0435 27.702 23.9707 27.272 23.9573ZM56.879 21.3413C56.907 21.342 56.935 21.3426 56.963 21.3432C56.959 21.3401 56.955 21.3365 56.95 21.3333C56.927 21.3358 56.903 21.3388 56.879 21.3413ZM-171.134 25.0593C-171.183 25.0692 -171.232 25.0772 -171.281 25.0833C-171.366 25.1298 -171.461 25.1715 -171.554 25.2142C-171.548 25.2276 -171.541 25.2408 -171.535 25.2543C-171.415 25.1712 -171.278 25.1101 -171.134 25.0593ZM-170.814 24.949C-170.873 24.9657 -170.924 24.9843 -170.979 25.0082C-170.908 24.9853 -170.839 24.9591 -170.77 24.9359C-170.785 24.9406 -170.799 24.947 -170.814 24.949ZM-83.604 22.9342C-83.717 23.01 -83.83 23.0729 -83.946 23.1236C-83.701 23.0968 -83.456 23.0762 -83.209 23.0632C-83.319 23.0484 -83.429 23.0292 -83.536 22.9993C-83.563 22.9779 -83.583 22.9548 -83.604 22.9342ZM-225.953 24.6211C-224.397 23.9484 -222.875 24.5656 -221.347 24.6996C-221.114 24.7185 -220.896 24.7614 -220.663 24.8033C-220.789 25.0581 -221.066 24.9486 -221.253 25.032C-222.487 25.0425 -223.708 25.0642 -224.943 25.0518C-225.335 25.0472 -225.928 25.2192 -225.967 24.6326C-225.963 24.6287 -225.958 24.6249 -225.953 24.6211ZM71.98 16.238C71.285 16.354 70.572 16.3204 69.859 16.241C69.854 16.2411 69.849 16.2412 69.844 16.2413C69.927 16.4023 70.108 16.5473 70.144 16.7206C70.082 16.7001 70.02 16.6822 69.958 16.6678C70.069 16.7592 70.157 16.8723 70.222 17.0072C69.969 17.4831 69.345 17.4713 68.869 17.6521C68.583 17.6688 68.296 17.6732 68.009 17.6731C67.981 18.2408 68.053 18.6273 68.246 18.8565C68.579 18.745 68.892 18.592 69.232 18.5094C70.186 18.285 70.492 17.4513 71.299 17.0914C71.878 16.9775 72.759 17.5369 72.99 16.6237C72.865 16.1308 72.473 16.1601 71.98 16.238ZM18.481 19.2817C18.499 19.3276 18.505 19.3776 18.5 19.4343C18.53 19.4428 18.56 19.4512 18.589 19.4597C18.592 19.4615 18.597 19.4633 18.6 19.4651C18.624 19.41 18.65 19.3506 18.683 19.2882C18.616 19.284 18.549 19.2821 18.481 19.2817ZM-226.788 22.6094C-226.21 22.4263 -225.688 22.4057 -225.13 22.7642C-224.424 23.2237 -223.454 23.0332 -222.651 23.2721C-223.557 23.772 -224.51 23.2826 -225.438 23.3568C-225.977 23.3203 -226.558 23.3421 -226.942 22.9574C-227.074 22.8216 -226.962 22.67 -226.788 22.6094ZM100.168 15.2995C100.234 15.3015 100.301 15.3061 100.367 15.3049C100.524 15.2954 100.681 15.2869 100.837 15.2774C100.677 15.2724 100.514 15.2678 100.353 15.2636C100.291 15.2754 100.23 15.2876 100.168 15.2995ZM-221.46 17.5849C-220.857 17.1481 -220.176 17.009 -219.444 17.3184C-218.829 17.5837 -218.187 17.7569 -217.477 17.6983C-217.214 17.7742 -216.951 17.8388 -216.702 17.915C-216.698 17.9149 -216.693 17.9148 -216.688 17.9147C-216.452 18.1176 -216.217 18.3088 -215.995 18.5119C-217.367 18.1222 -218.594 18.5587 -219.854 18.754C-220.521 18.858 -221.264 18.7792 -221.695 18.2572C-221.902 18.0077 -221.703 17.762 -221.46 17.5849ZM-225.808 18.1698C-225.121 17.5702 -224.436 17.6844 -223.473 17.8975C-224.323 18.2812 -224.976 18.3737 -225.808 18.1698ZM-135.261 16.1505C-135.161 16.1606 -135.049 16.181 -134.927 16.2131C-134.889 16.2227 -134.851 16.2295 -134.814 16.2381C-134.783 16.2399 -134.752 16.2416 -134.72 16.2432C-134.769 16.2295 -134.82 16.2157 -134.869 16.1997C-135 16.1565 -135.131 16.1442 -135.261 16.1505ZM24.174 12.5649C24.101 12.7042 23.955 12.8358 23.835 12.9747C24.423 13.1265 25.094 12.8574 25.701 12.9065C25.222 12.7458 24.631 12.7607 24.174 12.5649ZM33.532 12.5519C33.543 12.5532 33.554 12.5546 33.564 12.5558C33.566 12.5521 33.567 12.5482 33.569 12.5445C33.556 12.5471 33.544 12.5493 33.532 12.5519ZM-40.82 13.8187C-40.818 13.8187 -40.816 13.8186 -40.813 13.8186C-40.816 13.8167 -40.818 13.8149 -40.82 13.8131C-40.82 13.8131 -40.821 13.8168 -40.82 13.8187ZM-40.824 13.7985C-40.823 13.8015 -40.821 13.8044 -40.821 13.8075C-40.803 13.8078 -40.786 13.8084 -40.768 13.8088C-40.783 13.8 -40.799 13.793 -40.814 13.7837C-40.817 13.7887 -40.82 13.7936 -40.824 13.7985ZM-224.489 15.5202C-223.082 15.4029 -221.682 15.6307 -220.272 15.6631C-221.703 16.1032 -223.126 16.1983 -224.489 15.5202ZM-76.894 12.5734C-77.375 12.4668 -77.857 12.3263 -78.107 13.01C-78.124 13.0605 -78.156 13.0991 -78.195 13.1308C-77.984 13.2132 -77.746 13.2341 -77.465 13.1943C-77.307 13.1736 -77.164 13.1827 -77.043 13.2216C-76.981 13.2146 -76.918 13.2093 -76.853 13.207C-76.144 13.3611 -75.451 13.2627 -74.759 13.1504C-75.466 12.9454 -76.176 12.7343 -76.894 12.5734ZM-77.255 11.6216C-77.701 11.6835 -78.148 11.7553 -78.593 11.8446C-78.673 11.9257 -78.736 12.0173 -78.805 12.1048C-78.791 12.1153 -78.781 12.127 -78.769 12.1379C-77.296 12.1736 -75.599 11.8837 -74.442 12.3688C-73.036 12.9643 -72.203 12.0936 -71.191 11.9205C-71.232 11.8617 -71.275 11.7997 -71.316 11.7372C-71.335 11.7106 -71.352 11.6835 -71.37 11.6572C-73.318 11.4535 -75.296 11.6574 -77.255 11.6216ZM-68.744 10.8837C-68.803 10.9683 -68.881 11.0397 -68.968 11.1059C-68.628 11.0254 -68.287 10.9607 -67.945 10.9505C-68.184 10.8873 -68.45 10.8645 -68.744 10.8837ZM-27.208 5.27244C-26.57 5.20347 -26.201 5.51915 -25.947 5.9292C-25.827 6.12277 -25.766 6.32945 -25.661 6.53477C-25.665 6.53073 -25.67 6.5267 -25.675 6.52266C-25.678 6.52621 -25.682 6.52947 -25.685 6.53295C-25.681 6.53359 -25.678 6.5344 -25.675 6.53503C-24.847 7.37226 -25.067 8.04386 -26.19 8.58208C-26.191 8.63345 -26.192 8.68483 -26.193 8.7362C-26.266 9.51963 -27.179 9.64923 -27.897 9.8564C-28.403 10.0034 -29.131 9.89028 -29.413 9.57307C-29.813 9.10805 -28.987 8.97728 -28.731 8.68479C-28.37 8.2791 -28.009 7.87342 -27.649 7.46773C-27.551 7.2473 -27.467 7.02726 -27.369 6.81833C-27.367 6.81376 -27.364 6.80917 -27.361 6.80468C-27.364 6.80531 -27.367 6.80643 -27.37 6.80708C-27.429 6.75058 -27.502 6.6938 -27.517 6.63653C-27.611 6.25828 -28.51 6.34337 -28.288 5.81018C-28.121 5.41567 -27.658 5.31502 -27.208 5.27244ZM-180.743 11.8162C-180.895 11.9932 -181.083 12.0626 -181.288 12.0857C-181.051 12.0826 -180.813 12.0795 -180.575 12.0752C-180.488 12.0737 -180.399 12.0842 -180.312 12.0941C-180.356 12.0834 -180.385 12.0609 -180.443 12.0504C-180.585 11.9971 -180.68 11.9127 -180.743 11.8162ZM-182.361 12.0846C-182.508 12.1092 -182.673 12.11 -182.827 12.1199C-182.592 12.1108 -182.356 12.1043 -182.119 12.0994C-181.97 12.0967 -181.82 12.0941 -181.67 12.0914C-181.905 12.078 -182.143 12.0505 -182.361 12.0846ZM-166.843 11.7311C-166.98 11.742 -167.116 11.7573 -167.242 11.8034C-167.112 11.763 -166.979 11.7438 -166.843 11.7311ZM-166.652 11.7119C-166.691 11.7152 -166.73 11.7213 -166.77 11.7241C-166.731 11.7211 -166.691 11.7179 -166.652 11.7153V11.7119ZM-22.346 8.24914C-21.022 7.55783 -20.952 9.00707 -20.066 9.0373C-21.107 9.27463 -21.711 8.80187 -22.346 8.24914ZM17.743 5.3673C20.241 5.3227 22.724 5.24443 25.222 5.25739C25.963 5.25567 26.382 5.90493 27.011 6.17015C27.172 6.23638 27.219 6.41988 27.047 6.54963C26.732 6.77371 26.451 6.52536 26.159 6.48451C26.149 6.48174 26.137 6.48078 26.127 6.47834C25.867 6.5316 25.356 6.52428 25.891 6.84582C26.17 7.01357 26.663 6.971 27.114 7.03203C25.379 8.295 23.669 7.74947 21.903 7.2398C22.242 6.71581 23.404 7.55831 23.358 6.58064C23.199 6.54487 23.165 6.5006 23.25 6.43074C22.613 6.35647 21.912 6.42936 21.458 5.92291C21.458 5.91542 21.457 5.90792 21.457 5.90043C20.314 5.33356 18.969 5.64471 17.743 5.3673ZM-20.571 6.82402C-19.67 6.83097 -18.808 6.26258 -17.841 6.75166C-17.372 6.9966 -17.28 7.22532 -17.492 7.51695C-17.748 7.84392 -18.088 7.56259 -18.265 7.41602C-18.913 6.87502 -19.823 7.16708 -20.555 6.82374C-20.56 6.82384 -20.565 6.82393 -20.571 6.82402ZM0.320175 6.17015C2.30618 5.92742 2.105 5.88856 3.938 6.04003C4.305 6.2638 2.537 6.45696 3.922 6.69712C4.275 6.95554 4.161 7.09632 3.72701 7.16169C3.72201 7.16179 3.717 7.16188 3.711 7.16197C2.827 7.2238 2.02701 7.19109 1.32001 6.61649C0.538007 5.98582 1.40218 6.53084 0.320175 6.17015ZM-131.36 8.44449C-131.879 9.44418 -132.838 8.68957 -133.604 8.92205C-133.538 8.55252 -133.203 8.58072 -133.017 8.43922C-132.465 8.44088 -131.912 8.44284 -131.36 8.44449ZM-105.14 7.49275C-104.604 7.43716 -104.148 7.73958 -104.156 8.0735C-104.161 8.60299 -104.69 8.2336 -104.967 8.21505C-105.359 8.18752 -105.778 8.37942 -106.16 8.12165C-105.948 7.77238 -105.604 7.5471 -105.14 7.49275ZM5.66499 5.85963C6.54999 5.80924 7.413 5.32157 8.306 5.67414C9.213 6.0378 10.12 5.59642 11.097 5.78625C9.263 6.38331 7.47399 6.28798 5.66499 5.85963ZM-43.145 6.01696C-42.97 6.11126 -42.783 6.16533 -42.599 6.15117C-42.76 6.09486 -42.942 6.05087 -43.145 6.01696ZM-89.458 5.39308C-90.899 6.01764 -92.523 6.20805 -94.088 6.4778C-94.855 6.60667 -95.532 6.98737 -96.347 6.89827C-96.39 6.89805 -96.407 6.78347 -96.437 6.72668C-96.437 6.72293 -96.437 6.71919 -96.437 6.71544C-96.264 6.64326 -96.076 6.5824 -95.903 6.51021C-93.76 6.13796 -91.71 5.38722 -89.458 5.39308ZM-89.644 3.95686C-90.523 4.3526 -91.356 4.897 -92.595 4.64273C-91.739 3.78696 -90.63 4.04356 -89.644 3.95686Z" fill="#BF360C"/>
</g>
<defs>
<clipPath id="clip0_2002_4">
<rect width="125" height="30" fill="white"/>
</clipPath>
</defs>
</svg>

